<svg xmlns="http://www.w3.org/2000/svg" viewBox="0 0 321.95 182.46"><defs><style>.cls-1{fill:#fff;}</style></defs><title>Asset 1</title><g id="Layer_2" data-name="Layer 2"><g id="Layer_1-2" data-name="Layer 1"><path class="cls-1" d="M132.28,21.61c.19,0,.15.2.29.26-.07.08-.36-.07-.29-.26"/><path class="cls-1" d="M152.83,30.64c-.79.77-2.42-.16-1.73-1.29.56-.91,2.6-.14,1.73,1.29"/><path class="cls-1" d="M154.4,36.07c.5-.33.88-.82,1.63-.64,1.58.38,1.88,3-.14,2.83a2.15,2.15,0,0,1-1.63-1.55,7.46,7.46,0,0,1-2.63,3.4c-1.35.94-3,1.29-4.23,2.4a3.23,3.23,0,0,1-1.55.1,4,4,0,0,1-.9,2.07c-.18.17-.53.17-.76.32-.46.31-.63.83-1,.85a2.14,2.14,0,0,1-1.25-.79c-.2-.31-.1-.64-.31-.86a6.27,6.27,0,0,0-1.64-.79,15.52,15.52,0,0,0-2.52-.8c-.9-.22-2.36-1-2.46-1.55a1.47,1.47,0,0,1,.36-.94,9.07,9.07,0,0,1,1.69-1.51c.44-.33,1.49-1.09,1.64-1.51s0-1.76.31-2.48c.61-1.63,2-2.42,3.48-3.28a7.8,7.8,0,0,1,6-1,3.83,3.83,0,0,1,2.73,2c.09.21.11.65.31.86.64.69,2.45.13,3.07.77s-.17,1.29-.2,2.11"/><path class="cls-1" d="M309.22,56.43c-.05.11-.34,0-.38,0,.13-.24.18.07.38,0"/><path class="cls-1" d="M156.27,40.61a1.35,1.35,0,0,1,1.21,1.82,1.44,1.44,0,0,1-.89.85c-1.5.18-2-2.76-.32-2.67"/><path class="cls-1" d="M131.11,40.44l-.05.32a.37.37,0,0,1-.48-.07c-.07-.43.37-.5.53-.25"/><path class="cls-1" d="M159,48.39c-.26.22-.75.15-1,.41s-.14.66-.38.76c-.87-.46-2.06-.13-2.43-1a.77.77,0,0,1-1.25-.84c.08-.29.4-.43.42-.65.06-.58-.95-1-1-1.62a1.59,1.59,0,0,1,.55-1.18c.69-.3,1.8,0,2.6-.17a6,6,0,0,1,2.15,2.22,1.81,1.81,0,0,1,.3,2.07"/><path class="cls-1" d="M211.54,55.68c.15,0,.06.24.05.39-.16,0-.16-.16-.3-.21,0-.12.18-.09.25-.18"/><path class="cls-1" d="M211.11,56.77c.15,0,.09.12.2.14a1.31,1.31,0,0,0,.05,1.15c-.2,0-.27,0-.43-.06.18-.34-.17-.91.18-1.23"/><path class="cls-1" d="M212.05,57.07c-.11.16-.05.23-.06.43-.18,0-.26-.13-.48-.13s0-.31-.16-.4c.3-.13.39,0,.7.1"/><path class="cls-1" d="M154.69,50.84c.06.26.26.3.19.57-.29,1.15-1.69-.79-.19-.57"/><path class="cls-1" d="M130.69,49a1.07,1.07,0,0,1,1.05,1.08c-.09,1.43-2.34,1-2-.39a.92.92,0,0,1,.92-.69"/><path class="cls-1" d="M215.65,61.36l.16,0c.07.09,0,.28,0,.43-.22-.08-.07-.22-.15-.46"/><path class="cls-1" d="M181.32,86.1a21.7,21.7,0,0,0-3.87,1.36c-.86.52-1.3,1.38-2.12,1.78a4.77,4.77,0,0,1-3.15.25c-.88-.21-1.56-1-2.55-1-.45,0-.76.39-1.22.53-.5,1.18-1.5,1.67-1.77,3.14-.48-.14-.78.43-1.14.66a1.24,1.24,0,0,0-.19.57c-.53-.07-.63.44-.92.69a9.15,9.15,0,0,0,3,5c.38.39,1.12,1.18,1.57,1.27.27,0,.62-.14.89-.09s.53.3.82.39a11.18,11.18,0,0,1,2.53.64c.43.24.67.65,1.1.76a3.16,3.16,0,0,0,1.39-.13,4.38,4.38,0,0,1,1.34-.19c.39.08,1,.69,1.39,1a28.66,28.66,0,0,0,4.61,2.58c-.32-5.73-.65-11.5-1.23-16.93a6.82,6.82,0,0,0-.44-2.25Zm17.11-4a1.43,1.43,0,0,1-.75.66c-.82.37-2.07.13-2.55,1,.86,6.49,1,13.42,1.69,20.23a40.22,40.22,0,0,0,.61,4.9c.12.58.38,1.17.22,1.51s-1,.53-1.47.67c-2.67.87-5.28,1.38-8,2.07a11.39,11.39,0,0,1-3.32.68c-.3,0-.58-.35-.87-.46a21.94,21.94,0,0,0-2.48-.63c-2.4-.59-4.91-1.15-7.22-2a41.26,41.26,0,0,1-11.61-6.1c-2.16-1.7-4.2-3.27-5.58-5.68-1.08-1.87-1.81-4-.18-6a17.64,17.64,0,0,1,5.32-3.89,37,37,0,0,1,6.33-2.54c.45-3.12,2.51-5.56,5.4-5.14a5.35,5.35,0,0,1,1.82.65c.46.28.74.93,1.48,1.14A11.3,11.3,0,0,0,181,83.1a47.71,47.71,0,0,0-7-18.85,22.48,22.48,0,0,0-1.93-2.58c-.76-.87-1.68-2.14-3.19-2.21a5.21,5.21,0,0,0-3.46,1.64,28.35,28.35,0,0,0-2.69,2.68,27.52,27.52,0,0,0-2.46,3c-1.09,1.59-2.07,3.48-1.52,5.64a10.68,10.68,0,0,0,.64,1.68,3.21,3.21,0,0,1,.38,1.87c-.36,1.72-1.92.09-2.52-.75a6.78,6.78,0,0,1-1.36-5c.35-2.53,2-4.31,3.2-5.84a39.23,39.23,0,0,1,4.2-4.43A8.87,8.87,0,0,1,169,57.33a50.59,50.59,0,0,1,5.74.11,11,11,0,0,0,1.95.12c.28,0,.37-.24.75-.27a6.51,6.51,0,0,1,1.07.2,5.54,5.54,0,0,0,1.06-.12c.31,0,.6-.21.91-.25s.7.12,1,.09.4-.34.71-.39c2-.34,3.14,1.54,4,2.64a44.8,44.8,0,0,1,4.83,8.64,53.37,53.37,0,0,1,3.53,11.68,5.64,5.64,0,0,0,.41,1.7c.9,1,2.53-.29,3.58.57"/><path class="cls-1" d="M156.94,53.41c.71-.13,1.11.83,1.08,1.69,0,.47-.32,1.15-.41,1.69s-.26,1.28-.84,1.25c-1.1-.06-.46-1.19-.46-2.09a10.75,10.75,0,0,1-.15-1.28c.07-.48.29-1.17.78-1.26"/><path class="cls-1" d="M215.83,62c.06.24.06.6-.16.75,0,.19.2.17.11.39-.41-.28.05-.79-.17-1.11a.26.26,0,0,1,.22,0"/><path class="cls-1" d="M164.5,55.7c.22-.09.63.07.92.08a1.27,1.27,0,0,1,.51,1.39c-.56,2-3.75-.75-1.43-1.47"/><path class="cls-1" d="M215.71,63.18c.12,0,0,.23,0,.33s-.14-.06-.21-.08c0-.21.22-.06.2-.25"/><path class="cls-1" d="M128.29,50.87c.49,0,.7.27.68.6-.08,1.59-2.31-.48-.68-.6"/><path class="cls-1" d="M123.78,51.43c.13,1.08-1.33,1-1.42.34s1-1,1.42-.34"/><path class="cls-1" d="M215.25,64.48c.19.07,0,.2,0,.27s0-.2,0-.27"/><path class="cls-1" d="M215.2,64.86c.11,0,.09.15.07.28-.19,0-.17-.21-.07-.28"/><path class="cls-1" d="M215.15,65.18c.24,0,.13.55.07.67-.32-.13-.12-.39-.07-.67"/><path class="cls-1" d="M208.56,64.94a.46.46,0,0,1,.12.68c-.1,0-.08-.16-.19-.19a.83.83,0,0,0,.07-.49"/><path class="cls-1" d="M283.75,76.69c-.06.19-.28.41-.47.21,0-.22.26-.21.47-.21"/><path class="cls-1" d="M152.91,59.4c-.63-.27-1.1-.41-1.18-.94s.34-.73.84-.53,1,1.21.34,1.47"/><path class="cls-1" d="M283.55,79.18c.19,0,.06.21.19.25-.13.15-.37-.16-.19-.25"/><path class="cls-1" d="M215.53,69.78l.22,0c0,.2-.34.21-.22,0"/><path class="cls-1" d="M153.43,61.06c2.06-.26,1.58,3.17.12,3s-1.58-2.84-.12-3"/><path class="cls-1" d="M283.69,79.75c.16.06.3.13.28.32-.12,0-.29.06-.37-.06a.34.34,0,0,1,.09-.26"/><path class="cls-1" d="M157.86,61.92a.37.37,0,0,1-.07.48c-.41,0-.37-.65.07-.48"/><path class="cls-1" d="M215.55,70.44c.2,0,.31.19.17.3s-.16-.17-.17-.3"/><path class="cls-1" d="M282.32,80.49a1.51,1.51,0,0,1,.23.74c-.15,0,0-.27-.24-.25a1.17,1.17,0,0,0,0-.49"/><path class="cls-1" d="M284.72,80.94c.17,0,.16.14.12.29-.16,0-.24-.2-.12-.29"/><path class="cls-1" d="M211.72,72.3c.09.06.09.18.06.33-.31,0-.14-.2-.06-.33"/><path class="cls-1" d="M137.27,64.6c-.19-.25-.34-.34-.36-.55-.11-1.17,1.81-1.3,1.73-.24a1,1,0,0,1-1.37.79"/><path class="cls-1" d="M283.26,86.92c.12.07.15.21.11.4-.31,0-.26-.28-.11-.4"/><path class="cls-1" d="M283.35,87.42c.23,0,.24.18.22.36-.22,0-.16-.23-.22-.36"/><path class="cls-1" d="M215.39,78.74l.16,0c-.21.2.13.42-.09.65-.24,0-.23-.15-.35-.22.1-.14.32-.13.28-.45"/><path class="cls-1" d="M284.75,89.49c.07,0,.1,0,.1.07a16.77,16.77,0,0,1,.93,2.7c.22.71.71,1.42.5,2.21a3.11,3.11,0,0,1-.63-1.35c-.33-1.19-.55-2.46-.9-3.63"/><path class="cls-1" d="M211.44,81.46c.2,0,.05.22.06.33a.28.28,0,0,0-.2-.08c0-.17.16-.08.14-.25"/><path class="cls-1" d="M286.32,94.58c.22,0,.23.33.1.46s-.23-.33-.1-.46"/><path class="cls-1" d="M212.74,85.37a.19.19,0,0,1,.06.33l-.16,0c-.1-.13,0-.24.1-.31"/><path class="cls-1" d="M285.57,96.39c.17,0,.08.23.23.26,0,.11-.29,0-.32-.05s.06-.14.09-.21"/><path class="cls-1" d="M210.24,86c.09,0,.09.07.15.08s-.09.12-.13.2-.1-.22,0-.28"/><path class="cls-1" d="M208.35,91.91l.16,0a7,7,0,0,1,0,1.59c-.2,0-.16-.2-.29-.26.27-.26-.08-.83.14-1.35"/><path class="cls-1" d="M213.93,94.24c.33.21-.07.6-.28.78,0-.17.19-.55.28-.78"/><path class="cls-1" d="M211,94.26c.32.07,0,.41.2.52,0,0,0,0-.06,0s-.06,0-.07.05c-.17-.18.05-.38-.07-.61"/><path class="cls-1" d="M214.62,96.26c.34-.15.36.41,0,.38,0-.11.12-.34,0-.38"/><path class="cls-1" d="M213.26,97l.21,0c0,.22-.28.17-.21,0"/><path class="cls-1" d="M207.13,96.55c0,.14,0,.23-.19.19a.29.29,0,0,1,0-.17.32.32,0,0,1,.22,0"/><path class="cls-1" d="M209.78,100.22c.14.07.22.34.1.45-.13-.08-.12-.26-.1-.45"/><path class="cls-1" d="M209.86,100.83c.17,0,.16.16.17.3s-.15,0-.17.08,0-.26,0-.38"/><path class="cls-1" d="M209,101.08c.24.12.15.37,0,.55-.11-.17-.23-.4,0-.55"/><path class="cls-1" d="M209.81,101.54a1.65,1.65,0,0,1,.06,1.1c-.25-.11-.14-.79-.06-1.1"/><path class="cls-1" d="M209.29,101.73c-.31.28.15.56,0,1a1.1,1.1,0,0,0-.44,0c.22-.2,0-.57.31-.61,0-.16-.24-.11-.3-.21s.12-.1.09-.26c.13.19.26-.14.38,0"/><path class="cls-1" d="M214.74,103.07c.1,0,.1.08.21.08-.07.15-.11.32-.18.47-.2,0-.18-.25-.22-.42s.2,0,.19-.13"/><path class="cls-1" d="M209.79,102.85c.09,0,.08.06.15.07-.29.35.32.8-.08.92-.26-.19-.09-.71-.07-1"/><path class="cls-1" d="M213.65,103.78c.1,0,.1.09.21.09a.33.33,0,0,1-.1.26c-.13,0-.15-.11-.25-.15s.1-.12.14-.2"/><path class="cls-1" d="M213.65,106a.34.34,0,0,0,.21.09c-.1.23,0,.42-.14.63-.33-.12,0-.47-.07-.72"/><path class="cls-1" d="M213.89,107.05c-.09,0-.09.21-.24.18,0-.21.13-.33.24-.18"/><path class="cls-1" d="M213.06,107.53c.24.12,0,.68,0,.93-.16,0-.16-.17-.3-.21.05-.13.1-.18,0-.27a1,1,0,0,0,.34-.45"/><path class="cls-1" d="M210.94,107.78a2.22,2.22,0,0,0-.11.36.24.24,0,0,0-.15-.07c0-.18,0-.36.26-.29"/><path class="cls-1" d="M209.74,108.15c.18,0,.23.21.21.41-.24,0-.27-.18-.21-.41"/><path class="cls-1" d="M210.75,108.35c.1.07.08.22.05.39,0-.12-.15-.31-.05-.39"/><path class="cls-1" d="M209.7,108.8c.34.13.11.45.16.74-.31-.1-.14-.52-.16-.74"/><path class="cls-1" d="M211.91,109.78l0,.26c-.18,0-.09-.15-.19-.19s.11-.11.23-.07"/><path class="cls-1" d="M212.85,110.08c.15.17.36.64-.09.64.07-.18,0-.24-.12-.29s.2-.16.21-.35"/><path class="cls-1" d="M212,111.1c.06,0,.06-.14.13-.14s-.12-.17-.24-.2c.12.3-.11,1,.38.76.12.12,0,.42.27.43-.12.73.1,1.41-.28,1.93-.23,0-.06-.34-.15-.46s-.17.11-.34.06c0-.34.29-.17.33-.39-.22-.25.06-.58,0-.94-.29.08-.32-.08-.52-.18.09-.25.37.14.49,0s-.13-.09-.26-.09,0-.27-.24-.25c.07-.06.12-.15.2-.19a.37.37,0,0,0-.15-.13c0-.18.16-.12.2-.25s-.25-.83.23-.84a.39.39,0,0,0-.07.48c.21,0,0-.21.15-.3.46.12,0,.6.19,1-.16,0-.12-.23-.29-.26"/><path class="cls-1" d="M208.84,109.83c0,.22-.18.19-.36.17.1-.09.13-.26.36-.17"/><path class="cls-1" d="M214.05,111.29a.29.29,0,0,1,.16.4c-.23,0-.11-.27-.16-.4"/><path class="cls-1" d="M211.54,111.2c0,.11-.21,0-.24.13-.17-.14.17-.3.24-.13"/><path class="cls-1" d="M213.94,111.66c-.11.22.15.27,0,.38l-.27,0c0-.1,0-.23-.07-.28s.2-.08.34-.06"/><path class="cls-1" d="M210.07,111.15c0,.19-.13.22-.21.3s.17.16.24.26c-.24.19,0,.52-.21.68-.28-.3,0-.78-.21-1.18,0-.15.24-.07.39-.06"/><path class="cls-1" d="M214.2,111.75c.13,0,0,.16.14.18s-.15.1-.29.07c0-.18.11-.15.15-.25"/><path class="cls-1" d="M212.94,112.17c.11,0,.13.06.2.08s-.11.11-.23.08Z"/><path class="cls-1" d="M214.54,112.45a.36.36,0,0,1-.44,0c.07-.19.21,0,.44,0"/><path class="cls-1" d="M211.81,112.39c.23,0,.08.11.07.28-.16,0-.13-.24-.07-.28"/><path class="cls-1" d="M211.43,112.72c.17,0,.16.14.12.29-.17,0-.15-.14-.12-.29"/><path class="cls-1" d="M214.74,113.69c-.19.14.09.17.06.34-.22.06-.32-.19-.59,0,0-.1-.13-.15-.07-.33.25.07.38,0,.6,0"/><path class="cls-1" d="M211.62,113.35a.35.35,0,0,1-.1.26c-.09,0-.1-.08-.2-.09s.16-.16.3-.17"/><path class="cls-1" d="M213.82,114.05a.39.39,0,0,1-.27-.09c0-.17.31-.08.27.09"/><path class="cls-1" d="M213.06,114.32a.16.16,0,0,1,.09.18.33.33,0,0,1-.28,0c0-.17.16-.09.19-.19"/><path class="cls-1" d="M214.3,115.27a.24.24,0,0,0-.08.15c-.11-.06-.16-.17-.36-.16,0-.28.31-.05.44,0"/><path class="cls-1" d="M214.58,115.2c.22,0,0,.36.28.31-.07.19-.13,0-.33,0,.07-.18-.06-.24.05-.32"/><path class="cls-1" d="M214.09,115.57c.15,0,.09.12.2.13-.1.07-.08.28-.25.24Z"/><path class="cls-1" d="M214.35,116c-.08.1-.13.26-.31.23,0-.19.09-.3.31-.23"/><path class="cls-1" d="M213.72,116.22c.22,0,.22.19.16.41a.23.23,0,0,1-.16-.41"/><path class="cls-1" d="M214.24,116.41c.09,0,.11.11.08.23s-.14-.06-.21-.09.11-.07.13-.14"/><path class="cls-1" d="M214,117.31l-.32,0,0-.16a.2.2,0,0,1,.3.21"/><path class="cls-1" d="M213.23,117.36a.77.77,0,0,1-.15.69c-.16-.24-.2-.56-.39-.77.18-.12.33.07.54.08"/><path class="cls-1" d="M210.72,117.65c-.14.19,0,.31,0,.55a1.13,1.13,0,0,1-.25-.58c.12-.09.14,0,.27,0"/><path class="cls-1" d="M213.07,120c.17.13.35.92-.14,1,.16-.33-.14-.59.14-1"/><path class="cls-1" d="M213.13,121.07c.26,0,.08.39.14.57-.3,0-.37-.48-.14-.57"/><path class="cls-1" d="M213.35,122.58c0,.13.06.34-.06.43-.25-.06-.33-.52.06-.43"/><path class="cls-1" d="M213.88,122.76c.12.12-.06.36-.21.3,0-.16.16-.16.21-.3"/><path class="cls-1" d="M214.07,122.9c.18,0,.24.08.19.25a.21.21,0,0,1-.19-.25"/><path class="cls-1" d="M213.86,123.25c.19.07,0,.18,0,.39-.15,0-.06-.23,0-.39"/><path class="cls-1" d="M214.43,124.27c-.18,0-.32,0-.3-.21.16,0,.35,0,.3.21"/><path class="cls-1" d="M48.37,101a.37.37,0,0,1-.61,0,.31.31,0,1,1,.61,0"/><path class="cls-1" d="M212.52,126.46l0,.21c-.25,0-.23-.32,0-.21"/><path class="cls-1" d="M213.5,126.87a1.82,1.82,0,0,1,.12,1.06c-.33-.31-.16-.64-.12-1.06"/><path class="cls-1" d="M123.24,115.25c-.1,0-.33,0-.25-.15s.32,0,.25.15"/><path class="cls-1" d="M123.1,115.45c.07.07.24.08.19.25a.32.32,0,0,1-.22,0,.21.21,0,0,1,0-.27"/><path class="cls-1" d="M213,128.49a2.16,2.16,0,0,1,0,.72c-.28,0-.08-.59,0-.72"/><path class="cls-1" d="M115.54,115.13c0,.13-.22.1-.28,0s.22-.09.28,0"/><path class="cls-1" d="M139.87,121.86c.11.06.12.38-.1.31,0-.12.11-.14.1-.31"/><path class="cls-1" d="M138.23,125.62c0,.14-.1.17-.24.13s.1-.16.24-.13"/><path class="cls-1" d="M137.28,130.74c.12,0,.19.11.36.11-.1.19-.45.24-.36-.11"/><path class="cls-1" d="M138.87,131.46l.16,0c-.07.08-.08.24-.25.19,0-.1.09-.11.09-.21"/><path class="cls-1" d="M139.17,132.82c.31.08.25.45.33.7-.37.1,0,.83-.43.76.06-.33-.2-1.12.1-1.46"/><path class="cls-1" d="M140.43,133.16c0,.46.18,1.74-.32,2.2.14-.9-.11-1.49.32-2.2"/><path class="cls-1" d="M140.41,135.63c-.32.51-.14,1.2-.4,1.64-.19-.08-.3,0-.38-.06l0-.27.21,0c0-.12-.14-.08-.13-.18s.1-.15.14-.25c-.38-.32.05-1.4.52-.91"/><path class="cls-1" d="M139,135.36c.28-.06.15.49-.05.38Z"/><path class="cls-1" d="M138,135.39l.16,0c0,.13,0,.26-.1.31s-.08-.19-.06-.33"/><path class="cls-1" d="M138,135.93c.25.17,0,1.12,0,1.47-.33-.35,0-1.16,0-1.47"/><path class="cls-1" d="M253.62,108.07l0-.21c-.1,0-.3-.11-.33,0,.13.06.06.25.3.21m4,.17c.25,0,.21.26.51.25a1,1,0,0,0,.16-.36c-.29,0-.58-.11-.67.11m1.83.17.17,0a.19.19,0,0,1,.07-.15l-.21,0Zm.87.08c.1.12.38.09.4-.1-.19,0-.33,0-.4.1m-4.74-.89c-.44-.42-.41.38-.65.62.8.26,1.58.59,2.21.28.17,0,.12.16.24.2a.82.82,0,0,1,0-.38c-.76-.33-1.62.13-2-.47a3.35,3.35,0,0,0,1-.13c-.21-.26-.54,0-.8-.12m-3.66-.5c-.09,0,0-.21-.18-.19,0,.16-.29.16-.15.25.1-.12.31,0,.33-.06m-2.07-.43c.21.09.27-.28,0-.26Zm1.64,0c.25-.1.24.18.48.08.09-.27-.21-.25-.38-.34,0,.14-.12.11-.1.26m-1.46-.82c.16.11,0,.44.31.48s.18-.13.3-.17c0-.26-.4-.54-.61-.31m-1.1-.33c.2.2.61.4.9.19-.06,0-.07-.07-.09-.13-.28.3-.53-.38-.81-.06m-2.92-.67c.15,0,.12.13.13.24.3,0,.69.2.93,0a1.75,1.75,0,0,0-1.06-.27m1.12-.16c-.06.25.48.39.53.14-.18,0-.3-.21-.53-.14m-1.15,0c-.16,0-.07-.24-.05-.4-.23,0-.39.3-.35.45s.16-.12.34-.06c0,0,0,.07.06,0m.18-.47c0,.07.06.11,0,.22.3-.1.41.07.74.17.13-.26-.21-.16-.17-.35.21,0,.25.1.43.12-.09-.23-.47-.24-.64-.16,0-.29-.34,0-.23-.3-.21.11-.44,0-.69-.11-.09.36.26.45.54.41m-11.85-7.13c-.21,0,0-.34-.11-.4-.1.15-.19-.1-.37,0,.12.15.19.59.48.45m50.59,6.9c-.42.43-1,.57-1.42,1.05a6.63,6.63,0,0,0,2.34,1.56,9.5,9.5,0,0,0-.92-2.61m0-8.72a.46.46,0,0,0-.16-.41c0,.2-.11.43.16.41m-.11-1.77c.14.07.15,0,.27,0,0-.16,0-.55-.09-.51,0,.25-.16.29-.18.52m0-.38a.39.39,0,0,0-.26-.48.45.45,0,0,0,.26.48M243.89,76.27a48.26,48.26,0,0,0-6.4,1.38,29.76,29.76,0,0,0,5.09-.7c.52-.1,1.19,0,1.51-.54-.11,0-.05-.16-.2-.14m42.06,5a1.14,1.14,0,0,0,.06.33c.25,0,.32.19.12.24.08.17.33-.15.43.07s-.35,0-.41.16c.23.18.33.09.55,0-.11-.34.13-.63.38-.32.07-.43-.4-.17-.54-.41-.11,0,0,.3-.16.3a.42.42,0,0,1-.16-.41.34.34,0,0,0-.27,0m.23-.08c0-.19.29-.07.27-.34a.23.23,0,0,0-.27.34M286,81c-.15-.07.09-.13,0-.27a.37.37,0,0,0-.26-.09c0,.13.14.43.22.36m-.24-.59c.06-.11.33.06.3-.17-.17,0-.14-.12-.31-.1,0,.08-.11.27,0,.27m.45-.42c-.12-.47-.37-.84-.52-1.29,0,.61-.12,1.1.52,1.29m-5.45-2.75c.11.05.22.18.31.1s-.1-.3-.27-.37Zm6,1.14c.17.06.34.13.21.41.39,0,0-.66.25-.89-.25,0-.19-.18-.41-.17-.24.28.15.42-.05.65m0-1.54c.08-.17-.05-.18-.12-.24s-.07.25.12.24m3.58-.44c.08-.33-.1-.47-.23-.64-.13.19-.09.62.23.64m-5.95-2,0-.21-.16,0c0,.13-.06.26.13.23m-.43-1.87-.21,0c-.13.23.25.23.21,0m2,15.21c-.1,0-.29-.3-.25-.53l.21,0a13.59,13.59,0,0,0-.12-1.72,2.48,2.48,0,0,0,.41-.15c.08-.46-.07-.75,0-1.21-.48-.82-.46-2-.82-2.92a.35.35,0,0,0,.1-.26,4.06,4.06,0,0,1-.73-1.7c0-.09-.26,0-.25-.14.09-.47-.22-.63,0-1.16-.23,0-.22,0-.49-.08l.05-.32c-.22,0-.08-.19-.3-.15s.17.09.06.28c-.05,0-.07,0-.11,0s-.34-.13-.34-.33c.14,0,.11-.2.25-.18s.24.16.38.06a.19.19,0,0,1,.07-.15c-.36-.25-.17-.89-.35-1.27-.23,0-.35-.16-.48-.07a1.38,1.38,0,0,1-.25.57c0,.15.29.16.33.32s-.26.07-.31.23.19.08.19.19c-.28.52.47,1.12.15,1.51-.3-.2-.25-.64-.34-1-.35-.2-.14-.81-.44-1.05.08,0,.08-.11.13-.15-.18,0-.51,0-.46-.23a.31.31,0,0,0,.3-.12,1.28,1.28,0,0,1-.38-1.1c0-.1-.26,0-.26-.15a7.34,7.34,0,0,0-.33-1.75c.12,0,.13-.08.27,0s.08.26.11.4c.31.07.3,0,.53.08a1.9,1.9,0,0,0-.71-1.1c-.08.09,0,.31-.26.29s-.11-.08-.21-.08c.25-.39-.27-.56-.13-.9-.27-.09-.11.39-.36.16,0,.13.06.18.07.29-.21-.07-.26.08-.31.22s.21.1.24.21a3.71,3.71,0,0,0,.44,1.82c.14,0,.43,0,.47.12s-.17.12-.34.06a7.71,7.71,0,0,0,.36,1.59c-.2,0-.39-.06-.49,0,.6.39.36,1.19.58,1.9-.17-.22-.27,0-.59-.09.12.44-.16,1,.48,1.17a1.6,1.6,0,0,0-.29-.92c.07-.07.08-.23.24-.18a7.84,7.84,0,0,1,.73,2.08c-.09,0-.12.19-.21.25-.33-.2-.08-.83-.51-1-.09.16,0,.29-.08.54.05.09.19.11.24.2-.34.2.26.49-.15.63.19.2.24.53.49.79-.11,0-.11.21-.3.12a3.29,3.29,0,0,0,.21.42c-.06,0-.13,0-.12.09s.06.36.2.47c0,1.21.61,1.89.76,2.91-.13.1-.2,0-.37-.06a1.2,1.2,0,0,1,.63,1.25c-.19-.07-.24.06-.44,0a28.76,28.76,0,0,1,1,3.22l.27,0c.14-.18,0-.26,0-.44a1,1,0,0,1,.35,1c-.19-.14-.13-.45-.42-.51-.28.16-.07.26,0,.44a4.26,4.26,0,0,0,.41,1.22c.05-.16.25-.11.22-.35-.35-.12-.23-.29-.29-.6.05,0,.07,0,.11,0,.33.22.3.7.45,1a1.14,1.14,0,0,1-.43-.07c-.12.11,0,.35.09.46,0-.15,0-.26.11-.32,0,.12.13.19.11.35s.12,0,.22,0a10.31,10.31,0,0,1,.53,1.89c-.06,0-.1-.11-.16,0a.72.72,0,0,1,.31.48c-.31,0-.33.28-.24.51-.13.17-.41.14-.45.43a.48.48,0,0,1,.63.2c0,.17-.12.15-.1.32s.2-.19.22,0-.13.29-.27.34-.16-.21-.29-.27c.08.46.07,1,.47,1.23.11-.2-.15-.36,0-.44.17.1.07.4.19.52s.38-.12.43.12-.22.1-.28,0c.09.31.31.66.08.89a1.56,1.56,0,0,0-.46-1,1.08,1.08,0,0,0,.13.62c0,.07-.09.09-.09.21a17.78,17.78,0,0,1,1.14,4,.53.53,0,0,1,.28.7c.15.3.43.65.28,1,.87.75.65,2,1,3.11,0,.19-.21.15-.27.29-.1.3.8.68,1.2.46,0-.9-.45-1.83-.61-2.84a18.75,18.75,0,0,0-.39-2.52c-.13-.41-.34-.64,0-1-.19-.75-.73-1.57-.33-2.46-.65-1.27-.35-2.94-1-4.21-.11-1.92-1.4-3.45-.85-5.56a2.92,2.92,0,0,1-.13-1.61M283.6,72.25c.29,0,.14-.25,0-.28-.06.14.06.15,0,.28M281.38,71c0,.36.41.71.18,1l.11,0s.1,0,.11,0c-.18-.21.13-1-.4-.94m-1.31,0c.16.18.48.36.24.58.23,0,.19.24.39.28.11-.12.35,0,.37-.27a1,1,0,0,1-.29-.92,3,3,0,0,1-.35-.22,2.38,2.38,0,0,0-.36.55m1.27-.08c.16.09.14-.06.23-.08a.44.44,0,0,0-.22-.36c-.13.11.11.2,0,.44m-1-.59c.14,0,.19,0,.2-.19l-.16,0Zm-37.81-1.88c.07-1.87.45-3.81.59-5.67a7.11,7.11,0,0,0-.93-4.31s0-.06-.05-.06A40,40,0,0,0,235,75.85c2.87-.27,5.36-1,8.16-1.39a16.86,16.86,0,0,1-.66-6.07m66.37-12.07a9.5,9.5,0,0,0-.55,1.45c.16,0,.17.07.11.34a.35.35,0,0,0-.26-.09c-.13.59-1.05,1.8-.15,2.06.24-.13.42-.34.86-.2a3.07,3.07,0,0,1,.62-.89c.07.18.07.4.14.57a4.56,4.56,0,0,0,1.18-2.73c-.16-.06-.13.13-.28.07s0-.27-.12-.29-.18.21-.18.08a1.14,1.14,0,0,0,.13-.86,3.6,3.6,0,0,1-.55,1.07c-.13-.25.05-.47,0-.82-.25,0-.19.45-.35.49-.15-.13-.44-.15-.62-.25M322,41.15c-.44.45-1.21.45-1.81.71-1.44.64-2.15,2.14-2.85,4,.81,1.26,2.49,2.59,1.6,4.63a2.12,2.12,0,0,1-1.11.05c-.39-.1-.62-.48-1-.53-.66-.09-.87.71-1.18,1.3s-.64,1.12-.94,1.83c-.54,1.3-1,2.65-1.69,3.91a8.32,8.32,0,0,1-1.08,1.64c-.16.18-.5.24-.72.44s-.37.49-.54.69c-.7.77-2.1,1.62-3.24.38.32-4.89,2.21-9.35,3.08-14.11a22.75,22.75,0,0,0-10.21.08,21.66,21.66,0,0,0-5.42,1.75c-3.7,1.85-7.15,4.71-7.59,10.63a31,31,0,0,0,1.14,9.77c.69,3,1.52,5.87,2.43,8.81-.31-.1-.38-.47-.76-.39-.15.61.3,1.17.39,1.76a1.15,1.15,0,0,0-.32,1c-.56.08-.57,1-.32,1.38a1.48,1.48,0,0,0-.13,1.24,6.28,6.28,0,0,0-1,1.77c0,.23-.27.11-.37.22s.05.28,0,.49c-.39.12-.15.72-.6.73-.09.25.14.43,0,.6s-.47.13-.55.41a7.53,7.53,0,0,0,.18,2c-.6,1.82.06,3.5.46,4.89.06.29-.29,0-.31.23.1.83.64,1.8.68,2.73,0,.15-.09.33-.07.49s.22.56.25.86-.05.4,0,.6c.1,1,.58,2.14.72,3.18,0,.21,0,.44,0,.65.05.4.32.78.37,1.16s-.08.49-.07.81a8,8,0,0,0,.34,2.08c.33,1.12.64,2.09-.23,2.93a6.17,6.17,0,0,1-2.66,1.24c-.5-.06-1-.62-1.44-.94a30.4,30.4,0,0,1-3.91-3.12c-2.54,1.09-5.21,1.58-7.72,2.44s-5.09,1.65-7.71,2.39a43.74,43.74,0,0,1-24.87-1.22c-9.52-3.59-16.07-9.43-18.85-18a31.15,31.15,0,0,1-.18-16.42,50.47,50.47,0,0,1,3.41-9.79c2.09-4.39,4.4-8.48,8.19-10.53a7.64,7.64,0,0,1,2.05-.84c.7-.16,1.46-.2,2.31-.42a36.3,36.3,0,0,0,4.32-1.37c1.32-.51,2.63-1.39,4.13-1.56a4.12,4.12,0,0,1,1.62.19c1.21.4,3.36,2.16,2.14,3.57-.79.9-2.66.42-4,.7-1.71.35-2.69,1.56-3.69,2.62.57.21,1.45.12,1.89.56s.36,1.21.5,1.72c.47,1.74.15,4,0,6.19-.24,3-.15,5.85.68,7.73,2.2,0,4.34-1,6.53-.37-1.15.42-2.55.49-3.66,1,1.39-.11,2.64-.42,4-.6-.22.36-.7.38-.93.74-1.62.45-3.34.77-5.05,1.09-.05.5.56.66.53,1.23s-1.05,1.46-1.5,1.53c-.18,0-.37-.09-.59-.09a44.89,44.89,0,0,0-4.58.56,36.79,36.79,0,0,1-5.7.39A23.42,23.42,0,0,0,242.06,98,30,30,0,0,0,256,105.7a52.13,52.13,0,0,0,10.52,1.82,10.94,10.94,0,0,0,2,0,11.84,11.84,0,0,0,6-4.19,9.28,9.28,0,0,1,.58-1c.43-.43,1.15-.49,1.68-.9-.09-.59-.62-1-1-1.36-3.49-3.61-7-7.36-10.35-11.22A51.56,51.56,0,0,1,260.5,82c-.44-.71-.71-1.52-1.41-1.53a6.62,6.62,0,0,1-.95-1.68,6.52,6.52,0,0,1-.83-1.77c.49-.25,1,0,1.48.06.24,0,.56-.12.84-.15a11.78,11.78,0,0,1,4.54,0c-.07.61-.67.93-1.3,1.34-.29.19-1.45.78-1.54,1.13s.61,1.38.87,1.83a54.12,54.12,0,0,0,3.25,4.94c.78,1.08,1.73,2,2.55,3s1.75,2,2.63,2.93c1.75,1.85,3.59,4,5.42,5.76.9.88,1.94,1.69,2.93,2.75.37.4.84.92,1.37,1.41a8,8,0,0,0,1.5,1.33c.75.22,2.09-.35,2.78-.24-1.81-6.13-3.86-12.36-5.72-19-1.78-6.34-4.29-12.53-5.22-19.27-.52-3.73-.69-7.79.83-11.22A14.74,14.74,0,0,1,281.1,47a31,31,0,0,1,9.34-3,45.29,45.29,0,0,1,5.26-.73,38.18,38.18,0,0,1,6.56.12c.75.07,1.43.27,2.15.33,2.16.19,4.2.08,6.48.28.4-1.28.16-2.74.47-3.82,1.79-.56,4.48.09,6.63.4,1.28.2,2.71.44,4,.61"/><path class="cls-1" d="M214.15,98c-.09,0,0-.19-.07-.23s-.2,0-.23,0,.12.39.3.21m-3.27,30.74c-.23,0,0-.39-.27-.42-.16.3.1.8.27.42m-1.79-.48c0-.14,0-.32-.12-.34,0,.16-.05.32.12.34m1.48-.06c.25.08.24-.36.12-.42,0,.24-.22.27-.12.42m.77-1.53c0-.14.24-.07.3-.18s-.44.06-.3.18m1.37-.79a.24.24,0,0,1-.15-.08c-.19.23-.45,0-.63.19,0,.24.06.4,0,.66.28.15.82.37.54.79-.13-.06-.33-.3-.38,0,.23.09.18.4.54.4.35-.67-.15-1.12.06-2m-1.38-.25c.06.18-.1.52.07.61,0-.07.13,0,.18-.08-.06-.21.12-.7-.25-.53m.58.13c.2.17.38-.1.14-.19,0,.1-.16,0-.14.19m.12-.47c.12,0,.21,0,.23-.08s-.08-.16-.19-.19Zm-.56.08c.15-.11,0-.23.07-.43l-.17,0c-.13.12-.12.45.1.45m3.85.28.27,0c.08-.28-.11-.36-.26-.47a1.05,1.05,0,0,0,0,.43m-2.29-.82c.14,0,.31-.18.2-.24s-.19.08-.2.24m2.15-.07c.13,0,.17.09.27,0a.85.85,0,0,1,.1-.7,1.48,1.48,0,0,0-.4-.27c-.21.34.17.55,0,1m-3.37-1.31c.07,0,.18-.42,0-.38,0,.17-.26.33,0,.38m-.46-.23,0-.21-.16,0c0,.14,0,.24.13.24m1.23.18c-.32,0,0-.37-.21-.47-.16.42,0,1-.23,1.23a.37.37,0,0,1,0-.28c-.13,0-.13.08-.28,0-.13.24,0,.31.09.51a1.77,1.77,0,0,1,.59.09c0-.39-.1-.76.05-1.09m-.12,1.57c0-.11.28-.47.07-.48s-.17.4-.07.48m2.78-1.79c.17-.09-.07-.43-.18-.3.18,0,.1.21.18.3m-2.83-.52c0-.23.14-.19.16-.36-.12,0-.14-.11-.31-.1,0,.2-.06.43.15.46m0-.71a.31.31,0,0,0-.11-.35c-.11.09,0,.28.11.35m-.16-.41c.09-.06.16-.36,0-.38s-.18.33,0,.38m-.36-.11s.05-.05.11,0c0-.14,0-.26-.07-.29s-.16.28,0,.32m-2-.73c0-.07.09-.09.08-.2l-.16,0c0,.12,0,.21.08.23m1.11.22c.17.07.06.34.28.37a1.65,1.65,0,0,0-.11-.73,1.71,1.71,0,0,1-.17.36m-1.93-.61a.22.22,0,0,0,.12.29c.06-.13.11-.23,0-.33a.08.08,0,0,1-.11,0m5.23.54,0-.22a.12.12,0,1,0,0,.22m-2-.24c0-.13.23-.09.21-.3-.07,0-.06-.08-.15-.08s-.21.27-.06.38m-.14-.52c.22.12.32-.2.14-.25s-.16.08-.14.25m-1.15-.38c0,.3.21.42.11.78.33,0,.07-.49.22-.79-.12-.16-.17,0-.33,0m-3,.44c.29-.11.25-.91,0-1-.16.14.13.77,0,1m1.8-.34c0-.17.13-.43,0-.55,0,.23-.27.07-.26.29.19,0,.17.17.24.26m-1.88-1c.07,0,.07.11.14.13a.21.21,0,0,0,0-.33c0,.11-.15,0-.13.2m1.72.2c.27.12.38-.21.15-.26,0,.1-.17.08-.15.26m-1.66-1,.21,0c.08-.2-.22-.24-.21,0m1.66.24a.2.2,0,0,0,.26-.29l-.16,0c-.07,0-.09.18-.1.31m1.43-.4,0,.11s.06,0,.05.06l.11,0s0-.06.06-.05v-.1s-.06,0,0-.07H211s0,.06-.06,0m-2.45-.07.07-.54-.16,0c.15.2-.23.51.09.56m-.76-.5c.25.06.16-.21,0-.26Zm4.2.17,0,.11s.06,0,.05.06h.1s0-.06.07,0v-.11s-.06,0,0-.06l-.11,0s0,.07-.06,0m-.33,0c.21.07.25-.22,0-.21,0,.15-.11.09,0,.21m-2.93-.53c0-.21-.18-.25-.4-.28,0,.26.29.22.4.28m1.55.61c-.05.35-.23.69,0,1,.19,0,.23-.16.4-.16,0,.17.23.21.28.36s-.2,0-.18.14c.25.1,0,.54.29.65.22-.39-.1-.92.07-1.25-.08-.16-.28.17-.32-.1.25-.47.52-.85.24-1.28-.06.13-.1.29-.21.35s-.2-.08-.2-.19.13-.44,0-.49c-.06.19-.32,0-.38-.06-.35.29,0,.74,0,1m-.87.36c.82,0,.38-1.37,0-1.64,0,.56,0,1.1,0,1.64m-1.48-1.9c.09-.07,0-.31-.11-.35-.08.13-.08.3.11.35m1.41-.24c.1,0,.12,0,.22,0-.07.19.21.11.17,0a.42.42,0,0,1-.36-.17c-.11.1,0,.07,0,.22m-1.57-.5c0,.13,0,.18.13.24,0-.13.14-.22,0-.28a.08.08,0,0,1-.11,0m-1,0,.16,0c0-.09.09-.26-.07-.23s-.1.09-.09.21m5.34.93c.28,0,.17-.37.07-.48-.09.16,0,.21-.07.48m3.78,0,.22,0c0-.13-.06-.18-.13-.24s-.1.09-.09.21m-9.08-1.2c0-.15.1-.36-.05-.39a.26.26,0,0,0,.05.39m5.16.31c.14,0,.23,0,.24-.13s-.24,0-.24.13m-.32,0c.09-.07,0-.23-.07-.28s-.13.29.07.28m4,.58c.21,0,.35,0,.36-.22s-.24-.18-.34-.27c0,.25-.08.29,0,.49M209.22,114c.11.17.23,0,.42.17,0-.14.07-.31-.06-.34-.06.14-.32,0-.36.17m6.43.65c.12,0,.13-.08.27,0,0-.18-.13-.22-.23-.3Zm-6.91-2.58.21,0c0-.11,0-.24-.13-.24s-.09.09-.08.21m6.78,0a.5.5,0,0,1-.16.69c.38.11.06.92.55.79,0,.18-.3.07-.32.29.19,0,.28.29.47.17s-.17-.13-.18-.24.17,0,.18-.14c-.15-.11,0-.24-.06-.34-.06.07-.1.16-.24.13,0-.1-.13-.09-.07-.23s.37-.07.37.06a.9.9,0,0,1,.11-.37c-.18-.13-.48-.14-.39-.33.07,0,.08.1.14.13s.1-.21.2-.25c-.38,0-.16-.49-.6-.36m.08-1.35a1,1,0,0,0-.08-1.33c.13.47-.29,1.1.08,1.33m-4-1.9.22,0c0-.13-.06-.18-.13-.24s-.09.09-.09.21m.32-1c0-.11.15,0,.13-.2s-.09-.09-.2-.08-.05.25.07.28m3.54-.26c.21.21.49.1.53-.25-.2-.26-.53-.12-.53.25m-6-.59c-.16-.33.24-.16.28-.4s-.24.06-.26-.09.2,0,.18-.14-.2,0-.2-.14l0-.16-.17,0c.08.35-.16.68.14,1m6.17.12c.17,0,.24-.15.41-.16-.09-.13,0-.42-.22-.42a4.28,4.28,0,0,1-.19.58m-1.27-.68c0-.23.14-.19.16-.36-.33-.07-.3.22-.16.36m1.23-.59c.21.09.27-.29,0-.27s0,.14,0,.27m-7.72-1.49c.12,0,.12-.34,0-.33s-.19.35,0,.33m6,.86c.3.16.28-.3.16-.36a.41.41,0,0,0-.16.36m.18.25c.17,0,.15-.15.34-.06a.46.46,0,0,1,.15-.31.68.68,0,0,1,0,.5c.26-.19.19,0,.48.07,0-.17.17-.08.15-.25s-.2-.16-.06-.34l-.11,0s0-.06,0-.06-.1.21-.2.25c0-.15.06-.31,0-.39s-.12.19-.3.13l0-.22-.22,0a.71.71,0,0,1-.27.73m1.59-.38c.21.09.28-.35,0-.32Zm.08-.92c0,.13.1.21.29.21-.1-.2.23-.48,0-.6,0,.22-.28.12-.27.39m1.3.85a1.5,1.5,0,0,0-.1-1.22c-.18.38-.19,1,.1,1.22m-9.28-2.87c.11.55-.21,1.22.15,1.61.1-.53-.07-1,.23-1.61-.14-.08-.22,0-.38,0m7.85,1a.61.61,0,0,0,.44.39c.06-.26-.21-.65-.44-.39m-7.8-1.67c0,.16.12.25,0,.49.46.12.29-.31.41-.54-.13-.24-.28,0-.44.05m9.32,2.16c-.19-.36.09-.82-.1-1.22-.18.26-.36,1.15.1,1.22m-1.5-1.75c-.14.28.06.47.12.73.1-.14.11-.4.23-.52-.14-.12-.07-.28-.35-.21m1.41.48a1.46,1.46,0,0,1,.09-.59l-.17,0c0,.14-.16.56.08.62m-1.5,18c.09-.19-.16-.13-.18-.24.14.06.12-.1.18-.14a.68.68,0,0,0-.38-.38c-.15.07-.1.42-.28.45-.08-.2-.42-.2-.37-.49-.39,0-.32.29-.3.56.13,0,.29-.2.38,0-.16.14-.25,0-.4.1l0,.22c.24,0,.22.37.52.24a.52.52,0,0,1,.19-.58c.1.12.13.29.27.37s-.16.12-.19.25a.46.46,0,0,0,.39.27c0-.16.1-.13.1-.26s-.15.06-.16,0,.18-.22.26-.35m-3.26-12c.3,0,.23.31.26.53s-.22.14-.31.22a.2.2,0,0,1,.18.25c-.09.09-.1.29-.21.35-.05-.3-.3-.28-.65-.42-.12.21,0,.36-.18.47-.24,0-.2-.42,0-.5-.47-1,.09-2.15-.42-3.13,0,.26-.11.42-.33.39,0,.19.23.48,0,.55-.11,0-.08-.16-.19-.2,0,.19-.25.06-.21.3s.47-.06.47.18a.37.37,0,0,1-.13.15c-.18,0-.38-.29-.46-.23.15.08-.07.19-.09.26.17.09.1.37.14.56-.21,0-.39.05-.42-.17a.59.59,0,0,0-.31-.86c0,.38-.24.7.07,1-.24.4-.09.65-.34.89.44,0,.15.42-.15.3,0-.18.06-.23-.12-.34-.11.13.06.32-.21.3a.73.73,0,0,1,.32-.67c-.24-.05-.29-.23-.45-.34-.17.35,0,.55-.14,1,.15.21,1.08.37.57.63-.12-.17-.43-.36-.57-.2a.34.34,0,0,1,.08.56c.23.09.43,0,.54.08.08-.08.08-.27.2-.3.24.21.09.67.14,1-.19,0-.19-.11-.37-.11-.06.27.35.32.47.18,0,.23.17.35.19.58-.33,0-.09.25-.05.37-.26,0-.24.15-.16.31-.13,0-.19-.12-.23.07.14,0,.39.07.46.29-.15,0,0,.42-.18.47.06.06.15.11.19.19s-.23,0-.29.12c.13.06,0,.29.11.4a.46.46,0,0,0,.33,0c0-.46-.09-.84.3-1,.06.71.11,1.58.11,2.31.08.1.26,0,.3.15a.34.34,0,0,1,.34-.06c-.22.23,0,.46.08.62-.17.08-.27.58,0,.65,0-.27.22-.23.28-.4-.17-.09-.07.17-.23.08-.15-.31.19-.38.26-.3a1.66,1.66,0,0,1,.21-1.5c-.08,0-.2,0-.2-.08s.2-.16.35-.17,0-.2,0-.33.39,0,.51-.09c.19.22,0,.45.18.63,0-.14,0-.32.15-.31s.52-.07.6,0c-.09.16-.11,0-.28.07s0,.45,0,.71c.39,0,.41.19.28.37-.11,0-.14-.28-.31-.15a1.22,1.22,0,0,1,0,.65c.07,0,.2,0,.2.08s-.15.14-.15.31c.23,0,.29-.17.51-.14a2.48,2.48,0,0,1,0,1.25c-.34-.11.07-.79-.38-.82-.2.39-.26,1.39,0,1.21,0,.15,0,.35-.11.42a.63.63,0,0,0,.59.41c.07.32,0,.44.06.72,0,0-.07,0-.11,0-.25-.16,0-.69-.32-.81-.11.19,0,.44-.34.44.16.22,0,.68.33.76.08-.1.12-.26.31-.23s.22.28.26.48c-.26.13-.6.13-.68.5.4.44-.22,1.61.32,2,.1-.08.1-.29.22-.35a.8.8,0,0,1,.13.62c-.85-.14-.44,1.23-.2,1.34,0-.14-.1-.51.09-.59a6.35,6.35,0,0,1,.27,3.05c-.37-.24.14-1.16-.36-1.31,0,.29-.23.38-.31.62.44.11,0,.67.13,1.05,0,.15.28.11.12.3.16,0,.17-.17.27,0-.24.53-.11,1-.36,1.37-.14-.26-.49-.36-.86-.45-.2.13,0,.36-.23.46a.36.36,0,0,1,0-.55c-.33,0-.2-.32-.37-.43.1-.14.21-.36-.05-.45-.15.22,0,.46-.15.64a.31.31,0,0,1,.19.24c-.22.07-.28.33-.48.26a13,13,0,0,1,.32,2.35,1,1,0,0,0-.46.54,1.11,1.11,0,0,0,1.17-.16c1-.06,1.7-.43,2.65-.5.54-.93.08-1.74,0-2.51,0,.17.23-.67-.05-.78.16-.1.16-.42.21-.68-.21-.21-.65-.25-.62-.64.21,0,.21.27.32,0-.09-.11-.25-.16-.29-.31s.17,0,.19-.14a.51.51,0,0,1-.28-.37c.17-.13.22.08.37.11-.21-.28.13-.21.22-.41-.13-.18-.34-.05-.42-.11,0-.29.27-.12.27-.35-.21,0-.18-.21-.34-.27.19.06.27.11.39,0-.13,0-.2,0-.2-.14a.25.25,0,0,0,.18-.14c-.16-.18-.4-.42-.18-.63-.2-.11-.34-.28-.54-.4.24-.73-.1-1.59.07-2.45-.32-.11-.15-.59-.26-.86.06,0,.07,0,.12,0,.25,0,.18.29.36.16s-.19-.18-.17-.35c.14.1.37,0,.49,0-.07,0-.16-.1-.13-.23-.16,0-.14.14-.34.06,0-.09,0-.2,0-.23s-.18,0-.23.08a1,1,0,0,1,0-.87c.23,0,.42.38.58.14a.66.66,0,0,1,.06-1.2c0-.23-.05-.41.13-.53.22.11.1.23,0,.38.36.56.12,1.28.17,1.89,0,.11.32,0,.25.2s-.31,0-.31.23.08.38.14.57c.31-.06.24-.32.39-.49-.07,0-.28,0-.26-.1s.22-.09.3-.17c-.32-.33,0-1.45,0-2a1.25,1.25,0,0,1,.1-1.08c0-.17-.33-.11-.36-.16.15-.25,0-.55-.16-.74-.17,0-.16.3-.33.34-.07-.13-.27-.15-.22-.36-.16-.07-.12.13-.28.07s-.33-.24-.32-.49a2.87,2.87,0,0,1,.47.18,1.21,1.21,0,0,1,1-.19c-.06-.36.23-.52.13-.91-.07,0-.29,0-.26-.1s.17-.37.19-.57-.14-.49-.16-.79.28-.46,0-.61c-.19,0-.22.22-.41.22,0-.32-.31-.67.06-.81.17,0,.13.19.36.16A.85.85,0,0,0,215,110a.54.54,0,0,0,.08-.59l-.16,0a.42.42,0,0,1-.46.15c0-.16.05-.27.15-.31s.58,0,.43-.27c-.28.16-.43-.19-.62-.25,0-.16.15-.18.25-.24.15.25.37-.08.4.28,0-.17.12-.18.11-.37s-.21,0-.2-.14.14-.51.17-.85-.18-.84-.17-1.06.06-.64-.37-.49a2.24,2.24,0,0,1-.12,1.57.6.6,0,0,1,0-.83c-.21-.08-.23-.1-.34.06a1.46,1.46,0,0,0-.22-.74c-.16-.12-.25.16-.28,0a7.22,7.22,0,0,1,0-1.32c.1,0,.13,0,.23,0s0,.22.19.19c0-.12.11-.14.1-.31-.11,0-.42.07-.48-.07s.26-.12.4-.16,0-.38.16-.36c0,.23.42.13.45.34a2.44,2.44,0,0,1-.39,0c.05.4.77.31.87,0a6.05,6.05,0,0,0-.24-.64c.11,0,.18-.11.29-.12.07-.24,0-.35,0-.6-.25-.14-.46-.34-.7-.1-.08-.61-.31-1,.05-1.47-.15,0-.2-.19-.27,0,.08,0,0,.36-.16.36,0-.18,0-.43-.21-.47a.08.08,0,0,1-.11,0,3.63,3.63,0,0,0,.06.67.51.51,0,0,1,.36-.17c0,.16,0,.23-.11.37-.11,0-.08-.18-.21-.09a1,1,0,0,1,.36.93c-.15.09-.12.06-.33,0-.05.38-.27.47-.05.75-.11,0-.09.14-.23.08a1.7,1.7,0,0,1,.11-1.19c.11,0,.15.18.26.1,0-.31-.18-.17-.26-.43-.11.06-.05.32-.21.3a.43.43,0,0,1,.08-.53c-.52-.1-.24.49-.49.69,0,.11.13.16.06.34s.33,0,.25.2-.31,0-.31.23-.12.52-.28.78c.13.09.28-.08.27,0-.2.15.1.21.12.34-.22,0-.2.26-.37.28,0-.18.2-.16.21-.35l-.32,0a3.36,3.36,0,0,1-.1-1.22c-.25.12,0,.46-.3.56,0,.23.19.31.2.52a.59.59,0,0,0-.2.3c.23.22,0,.5.16.74.08-.16.27-.5.39-.39,0,.23-.2.3-.24.52.16.07.13-.13.24-.13,0,.15,0,.35.15.46a2.25,2.25,0,0,0,.08,1.32c-.26,0-.21.22-.37.28,0-.45-.35-.47,0-.88-.62.2-.2,1.23-.59,1.78m3.37-7.07a.21.21,0,0,0,.25-.19c-.08,0,0-.14-.15-.13s-.08.18-.1.32m1.38.3c0-.18.1-.49-.08-.56,0,.23-.06.46.08.56m-1.15-.71c0-.17.11-.4-.11-.4s-.2.38.11.4m-1.75,0c0-.17.18-.54-.08-.62-.2.22,0,.44.08.62m0-.94a.26.26,0,0,0-.11-.4c0,.19,0,.33.11.4m-7.16-1.63c.27.1.3-.11.37-.28-.19,0-.17-.19-.35-.21,0,.17-.09.39,0,.49m7.94.81c.08.08.07.23.17.3-.38.57.13,1.42-.28,2,.06.29,0,.85.55.68-.3-.73.18-1.65-.17-2.22.08,0,.21,0,.24-.13-.2-.17-.37-.32-.18-.68-.07-.09-.06-.24-.17-.3a1.65,1.65,0,0,0-.16.36m.75-.66c-.06.14.09.13.07.23.19,0,.23-.13.31-.23-.14,0-.3-.06-.38,0m-3.38-.1c0-.22.15-.75-.08-.61.08.14-.15.48.08.61m-1.89-1c.07-.13.18-.19.22-.35-.23-.11-.41.26-.22.35m1.9-.28c.08-.07.19-.08.2-.24s-.34.13-.2.24m4.77.74c.25.07.19-.28.17-.41l-.16,0c0,.15-.08.34,0,.43m-10.15-1.73c.07.56-.19,1.11.16,1.5,0-.19.1-.22.16-.3-.14,0-.22-.28-.06-.34a.24.24,0,0,1,.2.14c0,.12-.14.2,0,.32.47-.23.3-.93.25-1.39a.83.83,0,0,0-.66.07m8.86,1.22c-.07.14.05.15,0,.28.21,0,.45-.33.28-.4-.07.08-.21.07-.29.12M214,96.6c.13,0,.24,0,.29-.12s-.32-.1-.29.12m-6-.7a1.52,1.52,0,0,0,.11-.37c-.14,0-.11-.11-.26-.09,0,.2-.06.42.15.46m9,1c.17,0,.19-.09.2-.25a.3.3,0,0,1-.15-.07.27.27,0,0,0-.05.32m-9.81-1c.17,0,.33-.27.16-.36a.5.5,0,0,0,.26-.29l-.21,0a4.89,4.89,0,0,0-.21.68m5,.78c.23-.37,0-.72.15-1-.5-.06-.13.7-.15,1m.32-.67a.6.6,0,0,0,.41.17.54.54,0,0,0,0-.61c-.08.15-.23,0-.32,0,0,.16.07.37-.07.48m-4.69-.56a.39.39,0,0,0,.36-.23c-.17-.15-.1-.18,0-.32-.17,0-.13-.19-.36-.16-.2.25.09.37-.05.71m6.43.21,0-.21-.17,0c0,.14,0,.24.13.24m1.5-.11c.09.36-.21,1,.05,1.54.27-.57,0-1,.28-1.55-.16-.06-.2,0-.33,0m-3.16-.13a.93.93,0,0,0,.39,0,.68.68,0,0,0-.36-.49c-.07.19-.17.4,0,.54m-.69-.54c0-.22-.25-.22-.39-.33,0,.22.24.4.39.33m-2.33-.17c0-.19.27-.07.26-.29-.21,0-.2-.17-.35-.21s0,.34.09.5m.2-1.39c-.15,0-.12-.1-.26-.09,0,.32,0,.55-.16.74.36,0,.37-.56.45-.81Zm2.26.27c0-.31.29-.22.18-.47L212,93c0,.28-.36.39,0,.49m-3.58,8.19c-.15.11-.09-.1-.26-.09-.12.29.23.24.2.46a4.25,4.25,0,0,0,0,1.7c0,.11-.15,0-.14.2s.1.32.4.28l.21-.3c-.36-.21,0-.48-.09-.89.07-.14.24-.14.4-.16,0,.4.16,1-.12,1.24a.41.41,0,0,1,.39.33c.28.08.46,0,.52-.2-.18,0-.3-.06-.24-.25.3.1.54.32.78.33.09.46.43.73.3,1.36.4-.06,0-.74.4-.87.25.09.16.45.41.55-.13-.3.1-.61,0-.94-.15.08-.27.2-.42.27-.14-.19,0-.35.07-.54-.1-.27-.29-.48-.38-.76.12-.09.09,0,.27,0,0-.36-.31-.46-.38-.77,0-.16.12-.34,0-.5a.5.5,0,0,1,.15-.31c.11,0,.11.08.21.09-.13-.33.13-1-.16-1.17-.06,0,0,.19-.18.13-.16-.22.06-.45.29-.5-.16,0-.3,0-.25-.2s.33-.1.22-.35c-.19-.06-.21.22-.34.06s.12-.18.11-.37a.31.31,0,0,0,.22,0c0-.49.34-.71.27-1.11.13,0,.18-.06.28-.07,0-.21,0-.51.28-.4.08-.25,0-.36,0-.6-.09-.06-.2.14-.21,0s.18,0,.23-.13-.18-.15-.17-.3c.3-.11,0-.37,0-.55.47-.17-.09-.57.15-1-.45,0-.1-.23-.22-.41s-.12.13-.28.06c-.15-.24,0-.56.12-.85.07,0,.09.09.21.08.18-.33-.55-.43-.13-.62.12,0,0,.19,0,.28.21.06.19-.19.22-.36-.19,0-.49-.14-.6,0,.12,0,0,.2-.08.21-.22-.45.44-.21.55-.41-.42,0-.24-.25-.38-.39-.2.07,0,.31-.22.35a1.08,1.08,0,0,1-.18-.24c-.07.37-.51.39-.44.76-.08.06-.27,0-.29.12a.62.62,0,0,1,0,.83c0,.12.15.08.14.18-.25.55.39.42.37.88-.08.11-.21.14-.22.35s.29-.06.25.2c-.06,0-.07,0-.12,0s0-.22-.19-.2a.39.39,0,0,0-.09.26,1.28,1.28,0,0,0,.53.14c.26.22,0,.59.21.79-.13.11-.18-.07-.37,0,0,.36-.29.26-.44.37.13.22,0,.2-.11.37.08.11-.11.2.13.24-.05-.18,0-.19.19-.19,0,.34-.63.34-.37.66,0-.13.05-.2.14-.2.35.13.23.34.3.59a.45.45,0,0,0-.46.15c0,.08.21,0,.2.14-.3-.08-.2.37-.39.44,0-.77-.28-1.55.08-2.07-.15-.07-.09-.29-.22-.36-.21.2-.06.34,0,.59-.24.1-.08-.13-.3-.15a.94.94,0,0,1-.12.8c.08,0,.2,0,.21.09-.26.45.06,1.38-.47,1.74.19,0,.23.21.21.41a.26.26,0,0,1-.34-.27.72.72,0,0,0-.31-.86,10.17,10.17,0,0,0-.11,1.9m1-9.11a.2.2,0,0,0,.25-.18c-.08,0-.08-.1-.15-.13s-.09.18-.1.31m3.74-.06c.22.14,0,.31,0,.6.11.06.28.18.37.11s0-.66-.16-.79c0,.15-.25-.07-.23.08m.25,5.07c.12-.23.57,0,.78-.1a.51.51,0,0,1-.06-.34c-.22,0-.2.37-.53.25,0-.46-.21-1,.08-1.3-.11-.09-.14-.25-.22-.36.09-.07.31,0,.3-.18s-.19-.08-.19-.19.28-.22.27-.34c.16,0,.28.17.42.06S214,95,214,94.86c0-.41.37-.37.48-.65-.1,0-.12.06-.18.09,0-.18,0-.62-.23-.69,0,.23-.2.4,0,.5-.12.08-.13,0-.27,0a.45.45,0,0,0-.29-.65c-.32,0-.36.59-.64.68-.07-.06-.16-.11-.13-.24.13,0,.18-.06.28-.07-.11-.33-.06-.55-.26-.86.25,0,.19-.24,0-.32,0-.13.2-.07.2-.25-.23-.13-.06-.56-.22-.74a7.17,7.17,0,0,0-.11,3c.23,0,.24-.22.42-.27-.17.26.06.34-.14.59.08,0,.2,0,.21.08a3.08,3.08,0,0,0,.08,1.33c-.37-.07-.18.24-.11.36s-.2,0-.33,0c-.17.23-.42.76.05.83,0,0,0-.11.07-.1.06-.16-.18-.09-.07-.28a.25.25,0,0,1,.18-.14.76.76,0,0,1,.28.7c-.11.08-.15-.1-.23.07s.22.41.29.65c-.31.12-.37.83-.26,1,0-.19.07-.3.21-.3s0,.26-.05.38c.17,0,.18.08.31.1,0-.33.07-.64.36-.6,0,.09-.09.26.08.23s-.14-.21,0-.22.22.09.3.15c.1-.19.38-.41.27-.67.16-.12.44,0,.55,0-.16-.06-.05-.15,0-.28-.39.06,0-.46-.25-.53s-.1.29-.31.23c.05-.22.16-.34.43-.26.06-.15.16-.25.22-.41s-.16-.2-.17-.35c.34-.37-.22-1.28.24-1.67-.1,0-.18-.06-.2-.13.23-.15.1-.38,0-.5.14,0,.23-.12.4-.11a.71.71,0,0,1,.12.68c.13,0,.19.11.37.1.27-.39,0-.73.12-1.18l-.33-.05c-.09.1-.1.32-.26.34s-.21,0-.32-.1a4.8,4.8,0,0,1,.07-1.63c-.33,0,.21-.6-.17-.68-.2.7-.18,1.66-.33,2.31a2.3,2.3,0,0,1-.08,1.68c-.25,0-.12-.36-.2-.52-.06.13,0,.55-.26.62s-.32-.18-.38,0c.09.18.33.14.53.13a3.41,3.41,0,0,0,.11.78c.12-.07.13-.29.36-.22s-.22.7-.12.81c-.23,0-.06-.27-.29-.26a.47.47,0,0,0-.26.29c.29.32,0,.7.13,1-.26.15-.36-.15-.51-.24s.16-.08.14-.25c-.34,0-.18-.31-.22-.36-.12.13-.3-.09-.3-.21M211.35,92a1.53,1.53,0,0,0-.11-.78c0,.14-.15.71.11.78m-4.26-.5c0-.4.28-1-.1-1.17.06.45-.24.91.1,1.17m1.53-1.1c.07,0,.09.09.21.09l0-.16c-.12,0-.2,0-.23.07m2.72.5c0-.15,0-.29-.12-.29a.22.22,0,0,0,.12.29M208,90.05c.18,0,.24-.24.29-.45-.45-.1-.17.31-.29.45m-1,0c.25.1.21-.18.41-.16-.2.79.2,1.54-.17,2.28a.2.2,0,0,1,.19.24c-.08,0-.11.08-.18.09s-.13-.13-.19-.19a6.64,6.64,0,0,1,.13,2.1c.18.12.14,0,.33,0a7.61,7.61,0,0,0,0-2c.23-.33-.14-.93.32-1,.12.91-.19,2,0,3.17.56.05.16-.78.61-.84.42.52-.09,1.35.22,1.89.29-.24.08-1,.36-1.32-.12,0-.17-.07-.14-.18.29-.41-.2-1.13.16-1.51-.13-.22.06-.45-.12-.68a.28.28,0,0,1,.44,0c.08-.3-.48-.12-.43-.39s.05-.68-.15-.85c-.27.36-.11.78-.33,1.11-.12,0-.2-.05-.2-.14.12-.47.25-1.07-.33-1.14,0,.16.09.25.11.39-.25-.1-.12.31-.27.35-.39-.34.12-1.06-.23-1.4a.11.11,0,0,0,0-.22c-.06.07-.08.2-.24.13a1.16,1.16,0,0,0-.25-.91c.08.45-.23.9-.08,1.3m.27-1.87c0-.12.14-.37-.06-.34s-.15.35.06.34M217.3,89a.31.31,0,0,0,0-.27c-.06,0-.15,0-.17,0s.06.21.18.24m-4.22-.71c.11-.11,0-.33-.1-.45-.15.11-.21.43.1.45m1.57-.27c-.08.07-.25,0-.33.06,0,.45-.3.82,0,1,.15-.08.06-.56.55-.36.17-.16.07-.53.24-.56s.11.25.25.14c-.09-.19.12-.32,0-.49s-.18.23-.36.22-.19-.4-.3-.59c-.11.18-.19.37-.08.54M212.13,87c.23-.15,0-.53-.31-.54,0,.26.26.31.31.54m4,0c0-.14,0-.23-.13-.24s-.07.26.13.24m-.63.19c.07-.3.16-.52-.07-.67.14.24-.13.48.07.67m-1.15-.77c.23.07.18-.23.22-.41-.22,0-.24.28-.22.41m.16-1.51c0-.1.11-.31,0-.33s-.14.31,0,.33m-2.26-.27c.24-.19.2.23.41.22a.08.08,0,0,1,.11,0l0-.21c-.37-.11-.45-.44-.62-.69a.71.71,0,0,0,.06.72m0-.94c0-.18.14-.49,0-.6a.74.74,0,0,0,0,.6m2.85,0c0-.13,0-.26-.07-.29s0,.23.07.29m-2.42-.35c.09-.06.1-.32-.06-.34s-.17.33.06.34m-.07-.67c.21.09.27-.29,0-.26ZM210,81.63c.09-.2,0-.48-.17-.35.14.06,0,.31.17.35m.24.25c.15-.16.11-.8-.06-.72.08.15-.22.62.06.72m2-.36c.35-.09.18-.55.06-.76-.18.23,0,.57-.06.76m-4.34-1c.07-.27.22-.86,0-1-.07.25-.14.94,0,1m4.26-.32c-.1,0-.07-.17-.25-.14.08.42-.31.22-.35.49,0,0,.07,0,.05.07a6.44,6.44,0,0,1,.7-.34c0-.15.1-.36,0-.39,0,.18.06.24-.1.31m-4.23-1c.08-.06.12-.26,0-.28s-.12.25,0,.28m1.13.54c.38-.09.1-.69.18-.9l-.16,0a7.06,7.06,0,0,0,0,.93m4.87,11.43c.09-.38-.13-.6.07-.86-.31-.27.18-1.13-.19-1.34.42-.3-.12-1.54.29-1.66s.28.28.52.18c-.06-.21-.15-.36,0-.6a.26.26,0,0,0-.38,0,7.64,7.64,0,0,1,0-2.91c-.19-1.3.24-3,0-4.27.22-.22.08-.85,0-1.15a.41.41,0,0,0-.36.17c.08.06.16.11.13.24-.17.7,0,1.32-.19,2.11-.13,0-.21,0-.38,0,.07-.17,0-.22-.07-.29s.24,0,.21-.3c0-.08-.23-.15-.23-.3s.16,0,.23-.08c0,.06.06-.52.06-.43,0-.21-.22-.44-.18-.68s.14-.51,0-.72c-.14,0-.26,0-.3.18s.12.13.13.24-.13.17-.2.24c.19.29-.06.93.19,1.35a.19.19,0,0,0-.17,0,2.23,2.23,0,0,1-.19,1.67c.18.24-.07.66.2.9-.38.21,0,.84-.37,1,.17,0,.25.11.14.19s-.13-.26-.36-.16l-.05.32c.14.17.17-.16.39-.06.26.32,0,.74-.09,1-.16-.19-.26-.09-.48-.07.13-.09,0-.23,0-.33-.25,0-.33.15-.47.26.49.24.62.75,1.05,1-.17.28,0,.37.08.61-.15-.06-.15.06-.28,0s0-.28-.17-.3c-.1.23-.32.59,0,.71.12,0,0-.37.22-.35s.12.36.32.43c0-.46.35-1,.13-1.3.26-.18-.1-.54.31-.61-.23,0-.22-.19-.12-.34-.07,0-.2,0-.2-.09s.11-.19.2-.24c-.22-.27,0-.59-.09-.89.33-.14-.22-1,.4-.88-.17.33.19.45.2.86-.09.23-.34.26-.41.54.67.56-.32,1.71.23,2.22a1.08,1.08,0,0,1-.19.58c0,.11.22.12.18.3-.26.72.23,1.48-.37,2.19.1.08.28.11.29.26a.73.73,0,0,0-.22.35c.18,0,.16.11.19.19s-.2.08-.2.25.25.16.29.31a.27.27,0,0,0-.15.26c.2.07.27.09.44,0m-.51.09c.17.42,0,.84.16,1.18.07-.16.24-.2.28-.4s-.2-.11-.19-.25.11-.07.18-.08a.67.67,0,0,1,.17.74c.26-.05.29-.18.54,0,.35-.46-.43-.91.07-1.2,0-.12-.35,0-.36-.16s.05-.31.16-.36-.1.3.13.24c0-.13.11-.14.1-.31-.23,0-.14-.19-.36-.17-.25.29-.05.69-.2,1-.2-.07-.46-.3-.68-.21m-1.09-13c.12-.09,0-.28-.06-.34a.2.2,0,0,0,.06.34m2.55-.19a10.38,10.38,0,0,1,.15,1.61c.17,0,.2-.11.39,0,.09.23,0,.49,0,.87-.65,0-.54.65-.54,1.08.17.05.23,0,.34-.06,0-.32,0-.41.24-.52-.2,1,.07,1.24-.19,2.11-.36-.37.1-1-.37-1.26a3.59,3.59,0,0,0,0,1.43c.43,0,.35.3.25.58.18,0,.24.07.37.11.71-.65-.17-1.69.29-2.42a2,2,0,0,1,0-1.54c-.33-.1.16-.3-.15-.46,0-.13.18-.13.21-.29-.27-.25-.1-.61-.2-.91-.47.08-.42-.43-.78-.28m-1.84-.15c.09.06.11.17.3.15,0-.12.12-.14.1-.31-.16,0-.32,0-.4.16m2.46-.36c.16.07.18-.06.28-.07a.25.25,0,0,0-.23-.3c-.09,0,0,.26-.19.19s0-.17,0-.39c-.75.1-.15,1.29.14.57m-3.28-.8c.19.07.2-.11.3-.18-.11,0-.19-.11-.12-.29l-.17,0c.06.22-.09.3,0,.49m3,0a.12.12,0,1,0,0-.22Zm-2.13-1.19c0,.27.27.33,0,.56.41.13,0,.6.2.9.18.06.16-.17.34-.11.09-.21-.13-.19-.05-.4l.38.06c-.06.25.06.37-.13.47.29.06.19.19.22.36l.22,0a2.37,2.37,0,0,0,0-1.21,1.35,1.35,0,0,1-.85.21c.17-.37-.15-.56.07-.87-.18-.21-.22,0-.44,0M208.05,75c.12,0,.13-.38-.06-.34,0,.11-.14.36.06.34m5.21.31a.18.18,0,0,0,.33,0,.22.22,0,0,0-.33,0m2,.12a.2.2,0,0,0,0-.27c-.16,0-.22.1-.3.18.07.06.19.08.19.19s-.38,0-.4.16c.38.15.16.89.83.67-.07.25,0,.31-.18.52.1.06.13.19.3.21,0-.37.27-.49.43-.71.1,0,.11.08.2.09,0-.19.16-.17.26-.24-.16-.11-.49,0-.59-.14.16-.48-.16-.81-.38-1.15,0,.19-.1.54-.4.49m.74-.55c.05-.21-.06-.3-.28-.31,0,.18.12.25.28.31m-5.76-.28c-.08,0-.21,0-.29.07s.17.1.13.24c-.32.6,0,1-.11,1.57.12.1.3.15.33.32s-.25.69.12.67a12.4,12.4,0,0,0-.05-3.78,2.16,2.16,0,0,0-.13.91m7.55.37a.31.31,0,0,0-.12-.29c0,.16-.05.3.12.29m-2.58.07c.53,0,0-.55.27-.73-.46-.06-.16.48-.27.73m-7.47-2.5c.12,0,.13-.08.27,0-.12.71.08,1.33-.07,2,.21,0,.16-.3.33-.33-.06-.2-.3-.67.09-.65.22.49,0,1.06.16,1.56,0,.07-.1.08-.13.14.14,2.35-.21,4.47-.05,6.79.17-.11.05-1,.33-1.11a.57.57,0,0,1,.29.26c-.19-.05-.19.14-.21.3s.28.26.42.12-.1-.31-.15-.46l.21,0c-.07-.23-.17-.4,0-.6-.26-.16-.12-.29.07-.43-.27-.07-.11-.15-.17-.35-.25,0-.23.16-.16.31-.1,0-.3.15-.32,0s.16,0,.19-.14a.6.6,0,0,1-.33-.37c0-.16.12-.1.13-.2-.22-1,.09-2.48,0-3.57,0-.16.15-.14.15-.3-.26-.66,0-1.57-.08-2.48-.16,0-.22.05-.34.06s-.14-.14-.18-.24,0-.3.18-.47c-.24-.09-.13-.18-.17-.35l-.16,0c.11.3-.16.41-.3.56m8.9,1.67c0-.4.21-1.07-.19-1.29-.16.33-.21,1.09.19,1.29m-6.25-1.83.16,0c.05-.21,0-.38-.1-.45a1.21,1.21,0,0,0-.06.43m4.87.42c-.08.33-.25.76-.1,1,.29-.14.64-.17.69-.61-.07,0-.2,0-.2-.09.22-.18.26.25.42.12s-.06-.55-.29-.65a.32.32,0,0,1-.52.2m-6-.59c-.11.06-.15.23-.21.36.32.71-.19,1.55.18,2.16-.14.34,0,.4-.2.63.07,0,.13,0,.09.12-.21.63.35,1.2-.11,1.9.17,0,.09.16.26.15s.29-.13.36-.28-.19-.17-.29-.26.19,0,.23-.08a1.29,1.29,0,0,0-.23-.69.46.46,0,0,1,.33,0,1,1,0,0,1,0-1.21c-.27,0-.08-.24,0-.27-.12,0-.23-.06-.29-.26a.6.6,0,0,1,.17-.41c-.28-.32,0-.78-.22-1.13.16,0,.35.08.34-.11-.45-.2-.19-1-.26-1.19-.07,0-.07-.08-.16-.08a.6.6,0,0,0,0,.65m-.53.69c.16-.61-.05-1.14.09-1.79l-.16,0a2.18,2.18,0,0,0,.07,1.81m6.21-.53s.05,0,.11,0a.38.38,0,0,0-.16-.4c0,.16-.12.41,0,.44m-5.58-.85c.07-.09.21-.06.25-.19-.17,0,0-.32-.23-.3,0,.12-.19.36,0,.49m1-.52c.21.15.37-.29.15-.31-.06.09-.17.12-.15.31m4.8.85c.24,0,.1.37.32.43.15-.25,0-.64,0-.93l-.21,0c0,.3.11.33-.08.53m-6.38-1c-.05-.18.08-.5-.13-.57-.08.25-.16.52.13.57m9.05,1.08c0-.23.13-.32-.05-.44,0,.15,0,.34.05.44m-8.4-1.75-.09.59c.34.08.18-.2.23-.41.12,0,.3,0,.35-.17-.22-.16-.19.17-.49,0M215,71.4c0-.13-.11-.47-.17-.68-.18.26,0,.46.17.68m1.54,0c0-.19.38-.72-.05-.83.16.32-.13.62.05.83m-4.81,8.28c0,.13-.14,0-.09-.12s.15,0,.17-.08-.17-.23,0-.33c-.15-.16-.38,0-.42-.17.11-.1.06-.4.18-.47s.09.16.19.19c.07-.27,0-.42.05-.7-.14,0-.32,0-.31-.16s0-.22.06-.43c.3,0,.43-.5.15-.63-.11,0,0,.3-.15.31a1,1,0,0,1,.23-.85c0-.11-.24,0-.19-.19s.32-.12.33-.39c-.16,0-.19.1-.34.06.12-.69-.24-1.5.07-2,.13,0,.1.12.26.1-.2-.75.25-1.65-.07-2.2,0,.21,0,.36-.21.35,0-.22-.11-.65.11-.75s0,.21.13.24a1.28,1.28,0,0,0,.15-.69c.07.07.21.1.25.2s-.11.09,0,.21.32-.09.42-.21c-.32,0-.06-.44-.32-.49s-.14.2-.29.18a.58.58,0,0,0-.19-.25c0,.21,0,.44-.27.35,0-.43.26-1-.07-1.38a.52.52,0,0,0-.09.59c-.09.07-.28,0-.3.17.37,0,.15.63.09,1,.55.61-.1,1.48.06,2.25-.11.08-.18-.07-.38,0,0,.4.48.06.49.4,0,.1-.15,0-.14.2s.21,0,.2.13-.1.31-.17.42c-.18-.07-.21,0-.38,0a.21.21,0,0,0,.37.1l-.07.49L211,75c.1.32-.15.32-.29.5,0,.1.19.2.07.29.14,0,.18-.08.21.08s-.2.07-.29.12a6.65,6.65,0,0,0,.34.65c-.12.22,0,.4-.2.63a.84.84,0,0,1,.26.48.49.49,0,0,0-.25.18c.54.56.35,1.58.29,2.23-.14,0-.24,0-.24.13s.25-.07.19.19-.15,0-.28,0a2.44,2.44,0,0,0,.27.8l-.27,0a8,8,0,0,1-.26,1.82c.49.3-.27,1,.14,1.33-.29.25-.15,1-.44,1.15-.15-1,.23-2.65-.08-3.63-.06.16,0,.2,0,.33s-.29-.16-.29.07.17.13.19.24,0,.22,0,.39l-.22,0c0-.08.08-.44,0-.28,0,.41-.47.44-.29.84.06-.26.2.05.2.13s-.18.14-.3.18c.12.38-.06.78,0,1,.16-.15.38.06.36.21-.14,0-.19,0-.2.19s.25.14.17.36-.23.15-.36.22c.39.18.05.63.25,1,.07.18.18-.12.21,0s-.15.13-.2.24.2.14.18.3c-.07,0-.07-.08-.16-.08,0,.16-.09.13-.09.26s.26.22.21.47c-.13.09-.07.1-.16,0a11.53,11.53,0,0,0-.17,2.27.54.54,0,0,1,.46-.15,27.84,27.84,0,0,1,.32-3.73c.14.38.31.73.45,1.1-.58.2.16,1-.4,1.21.08.25-.11.27-.06.43.21,0,.22.12.42.11a1.3,1.3,0,0,1,.06.78c.1,0,.11.07.2.08.17-.23-.11-.76.3-.94a.36.36,0,0,1,0,.32c.33-.07.28-.77.13-.91.34-.37-.1-1,.3-1.33-.22,0-.13-.32-.27-.42.17.07.13-.12.24-.13s-.09-.23-.12-.35c.26,0,.19-.38.26-.62-.07,0-.16,0-.16-.07a2.68,2.68,0,0,0-.09-1.28,2,2,0,0,0,0-1.58c.12,0,.23-.38.13-.48-.07.08-.17.11-.23,0,.09-.47.51-.48.36-.94-.13,0-.13.08-.28,0-.09-.5-.24-1.58.24-1.67m.06-10c.11,0,.05.15.2.14s0-.11.07-.1c-.22-.25.13-.41-.14-.57-.08.21,0,.26-.13.53m.13-.86c0-.13.11-.15.1-.32-.08,0-.2,0-.23,0,.13,0,0,.24.13.29m2.87.58c.44,0,.13-.59.12-.86-.22.14,0,.47-.12.86m.19-1c0-.16.08-.35,0-.44l-.16,0c-.06.24,0,.39.15.46m-1.36-.42c.17-.14,0-.28-.17-.35-.06.21.14.21.17.35m4.28.67c0-.16,0-.38-.1-.45a.46.46,0,0,0,.1.45m-3.69-.58c0,.08.2,0,.2.14a.29.29,0,0,0-.31.23.57.57,0,0,1,0,.7.32.32,0,0,1,.18.25c-.16.24,0,.81-.37,1a1.2,1.2,0,0,1-.18,1.62c-.06-.1-.2-.14-.11-.35-.13,0-.26,0-.29.07.27.26-.1,1,.29,1.41.21-.38-.09-.82.27-1.06.09,0,.17.06.19.14s-.14.15-.15.31c.27,0,.08.22.05.39.08,0,.2,0,.21.08.06.3-.16.42-.35.55.07.09.27.09.3.21s-.11.37-.23.46a2.16,2.16,0,0,1,.23.69c-.27.12-.12.52-.33.72.21.17.28.39.56.3-.06-.27.07-.17.16-.36-.16-.53,0-1.27-.16-1.89.37-.3.08-.82,0-1.09a7.44,7.44,0,0,0,.07-3.17c.17-.23,0-.78.29-.89-.42-.18.07-1-.46-.94.18.06,0,.33,0,.44m.58-.25.16,0c0-.14,0-.24-.13-.24Zm-3.55-.78c-.11,0-.11-.08-.21-.09-.11.23.2.33.21.09m3-.07c0,.21-.05.49.14.57.29-.15-.05-.37.14-.58a.37.37,0,0,0-.28,0m-2.93-.91c0-.14,0-.19-.19-.19-.08.17.05.18.19.19m3.55.78c.18,0,.17-.24.23-.4s-.08-.1-.15-.13c-.12.26.05.27-.08.53m3.16-1c.08-.26.14-.82-.07-1-.15.29,0,.72.07,1m-.06-1.1c.05,0,.2-.36,0-.33,0,.09-.11.3,0,.33m-7.74,1.67c0-.41.32-.38.35-.16.1.7-.32,2.1,0,2.35.25-.11.11-.45,0-.6a35.34,35.34,0,0,0,.09-5.52c.11-.17.19-.36.07-.53-.19.15-.45-.15-.51.14s.19,0,.32,0c0,.76.16,1.7-.46,2.07.07,0,.29,0,.26.09a4.49,4.49,0,0,0-.14,2.11M215,62.31s.06,0,0,.11c.32,0,.11-.36,0-.11m-4.56-.61c0-.14.1-.16.23-.13.06-.3.3-.76,0-.88a.94.94,0,0,0-.2,1m5.21-.45c-.17,0-.08-.16-.25-.15-.22.19.15.5-.14.59s0-.34-.17-.36a1,1,0,0,0,.07.67c0-.06.09,0,.17,0a2,2,0,0,1,.06.72c-.06.08-.26,0-.24.13s.1-.06.21,0a4.21,4.21,0,0,1,0,.71c-.15.08-.25-.09-.39.06s.33.41,0,.66c.13.07.36-.15.32.1s-.18-.09-.32,0a7.76,7.76,0,0,1-.07,1.58c.8.26.29.92.48,1.6.14,0,.18-.06.29-.07.08-.19-.17-.38-.05-.44s.2.08.19.19.13.61-.26.67c-.11,0,.05-.29-.12-.29a5.59,5.59,0,0,0-.09,2.89c-.24.13-.12.57,0,.76.36,0,.5-.4.89-.09a.16.16,0,0,1,.13-.15c-.09-.32-.47-.52-.15-.89,0-.12-.23-.11-.29-.21.55-.12.17-.78,0-1.1.14-.11.22-.4-.05-.44-.11.24.11.53-.14.58-.24-.1,0-.33.07-.48-.22,0-.33-.11-.28-.32.21-.08.32,0,.48.13.05-.19.21-.23.27-.4s-.38-.88,0-1.15c-.16-.14-.05-.48-.3-.54-.13.24-.12.65-.38.71a.63.63,0,0,1,.19-.57.8.8,0,0,1,0-.93c.25.22.09.39,0,.65.21.1.37.13.5,0s-.17-.1-.13-.24a1.42,1.42,0,0,0,.13-1.3c.26-.28.05-.68-.21-.85,0-.42.31-.58.3-.94-.1-.07-.25,0-.24-.25s.19-.18.22-.36a.79.79,0,0,1-.18-.68l.22,0,0-.27c-.2-.05-.29-.2-.46-.28-.13.08-.17.28-.27.4m2.3.71c.27-.13.23-.79.15-1-.37.3.05.7-.15,1m-3.25-1.34a.5.5,0,0,0-.1-.45c0,.24-.25.43.1.45m1.23-.92c.07.36,0,.43-.13.86-.18,0-.21.15-.4.11,0,.1,0,.27.07.33,0-.33.35-.33.57-.19.1,0,0-.25.15-.25s0,.18.19.19c0-.46-.15-.54-.07-1-.14,0-.3-.06-.38,0m-.45.43c.2-.11.2-.35.14-.58l-.16,0c-.09.16-.17.53,0,.61m2.58.7c0-.41.17-.77-.06-1.1a2,2,0,0,0,.06,1.1m-9.56-2c.26,0,.29.13.41.22,0-.11.15-.13.15-.31-.19-.11-.28-.29-.49-.4a1.21,1.21,0,0,1-.07.49m7.37.51c-.06-.09-.27-.09-.42-.12,0,.17.37.3.42.12m-3.2.2a2.65,2.65,0,0,0,.11-.81c-.13,0-.15-.11-.25-.14,0,.36-.18.84.14.95m.35-.94c0,.18.13.23.29.26a.2.2,0,0,0-.29-.26m2.14,0,0,.21c.2.07.27.42.51.3,0-.19-.13-.32-.15-.52-.17.06-.21,0-.33,0m-2-.72c.09-.06.14-.31,0-.33s-.17.27,0,.33m1.24,2s.11,0,.1.07c.42,0,.21-.62.12-.81a2.06,2.06,0,0,0,0-1.65c-.55.79.14,1.42-.18,2.39m1.5-2c.15,0,.28-.09.19-.19s-.18.05-.19.19m-.43-.06a.37.37,0,0,0,.28,0,.2.2,0,0,0-.19-.24.35.35,0,0,0-.09.26m-2.4-.79c.09,0,.1.11.07.23.24,0,.1-.1.2-.24-.17,0-.2-.16-.27,0m1.34.14c.1.09.13.23.3.26-.06-.19.05-.48-.07-.72a.84.84,0,0,1-.23.46m3.69,1a1.29,1.29,0,0,0-.07-1c-.08.25-.22.93.07,1m-2.66-1.31c.05.22-.07.57.18.63,0-.12.07-.16.19-.14.05-.15-.13-.32.14-.25l0-.27a.24.24,0,0,1-.15-.08c-.06.14-.2.17-.4.11M213.7,57c.34-.19.14-.84.09-1-.33.3,0,.77-.09,1m-.44-1.16c0-.14,0-.18-.19-.19-.07.19.08.28.19.19m-2-.61c.25,0,.3-.19.52-.2-.14-.1-.33,0-.53-.13a.51.51,0,0,0,0,.33m1.06-.12s.32.16.37,0-.28-.27-.37,0m-.24-.26c.15,0,.29,0,.29-.12s-.27,0-.29.12m1,0c.09.12.28,0,.34-.06-.1-.14-.24,0-.34.06m2,.4a.56.56,0,0,0,.53-.25c-.19.07-.45,0-.53.25m-1.64-.4c.15.07.1.28.34.27,0-.19,0-.32-.11-.4,0,.11-.2,0-.23.13m2.26-.11c.43.09-.06.67.33.71a11.43,11.43,0,0,1,.08-1.25l-.17,0c-.09.21,0,.41-.24.57m-2-.17c.24-.18.08-.71-.09-.89,0,.36-.27.7.09.89m1.73-.57c.08-.06.14-.31,0-.33,0,.16-.18.25,0,.33m.46-1.31c0,.09.12.07.21.09,0-.19.1-.2.1-.37-.07,0-.06-.08-.15-.08-.06.17.06.23-.16.36m-4.57-1c-.07.35.15.7-.15,1,.14.29.34.82,0,1,0,.25.25.32.24.58.57.06.72.14,1.18.17-.17,0-.09-.24-.29-.26s-.31,0-.44.05c-.08-.12,0-.36,0-.55.12,0,.31-.08.32.1s-.27,0-.26.24a.54.54,0,0,0,.58-.19c-.11-.11-.18-.17-.06-.34-.31-.06-.39.17-.68.12a5,5,0,0,0-.25-2.06.22.22,0,0,1-.23.08m-.93,6.82c0,.14-.16.2-.21.35s.43.41.08.62c.31.18.12.73.22,1.07.59-.68.13-1.59.46-2.4.4.34-.21.86.16,1.17a1.41,1.41,0,0,0-.06.76.35.35,0,0,0-.17.09c.39.77-.1,1.54.2,2.38-.44.2-.07.78-.17,1.18.23.12.78.48.29.7-.08,0,.05-.26-.13-.24-.3.41.5.6.24,1.35-.15,0-.29,0-.29.12s.35,0,.3.21c-.12.64.22,1.15-.17,1.51.26.12.18.42,0,.54a1,1,0,0,1,.08.94c.12.11.21.23.34.33a1.33,1.33,0,0,0,0-.83c.16-.2.29.09.43,0a1.43,1.43,0,0,1,0-.93c-.23-.14-.11.2-.29.12a8.1,8.1,0,0,1,.06-2l.16,0c0-.25-.39-.35-.19-.57,0,.14.29.32.32,0-.14-.11-.38-.13-.39-.33s.32.19.34-.07-.29-.1-.23-.3a.34.34,0,0,0,.27,0c0-.61.36-.73.4-1.2a.36.36,0,0,1-.13-.62.85.85,0,0,1-.09-.94,2.19,2.19,0,0,1,0-1.48c-.29-.19-.06-.53-.15-.9,0-.11-.3,0-.3-.15l0-.22c.1,0,.31.12.28-.07s-.11.07-.28,0a10.19,10.19,0,0,0-.22-1.13c.17-.12.32,0,.42.12-.14-.56.4-.58.66-.79-.11-.19-.46.07-.46-.17.22,0,.28-.13.5-.09,0-.34-.43-.42-.56-.69a.8.8,0,0,0,.58-.57c-.23-.1-.37-.27-.61-.36a1.19,1.19,0,0,1-.78.11c-.29.37-.21.63-.16,1.12a.23.23,0,0,1,.23-.07c0,.1.23.3,0,.39-.26-.17-.38-.19-.53-.13.07-.5-.2-1.08,0-1.7-.36-.9.16-2.56-.22-3.42-.39,2.51-.08,4.46-.31,7.07m4-5.5c0,.46-.16.87-.2,1.34.45.4.09.87.14,1.34,0,.16-.17.16-.21.29.29.06.23.38.36.55.32-.49-.06-1.15,0-1.75a1.94,1.94,0,0,0-.11-1.49c.38-.43.1-1,.15-1.41-.52.37-.17.8-.16,1.13m1.34-1.34a.27.27,0,0,0,.32.05c0-.13,0-.24-.12-.29,0,.18-.23,0-.2.24m-1.21-.34a.54.54,0,0,0-.07-.66c-.22.17-.09.51.07.66m-6.31,13a6.89,6.89,0,0,0-.13,2.83c.31-.08.42.09.57.25-.19.56-.38,1.32-.09,1.74.28-.59-.2-1.65.41-2.08a3.33,3.33,0,0,0,.12.67c.76-.27.09-1.29.39-1.91,0-.18-.09-.36-.15-.52a22.47,22.47,0,0,0,.28-2.31c.11,0,.09-.14.23-.08s.1.21.3.21a.28.28,0,0,0,.06-.43c-.22-.1-.1.25-.3.18a.42.42,0,0,1-.4-.28c.2-.41-.16-.87.09-1.36a2,2,0,0,1-.16-.45c.25-3.77.12-7.27.16-11.37-.18,0-.26.16-.37.27.21,0,.26,0,.31.16s-.2.12-.25.24.16.1.13.23-.22,0-.19.19c.17,2.27-.14,4.9-.09,7.44,0,.13-.11.15-.14.25.21.41,0,1.22.36,1.64a.88.88,0,0,0,.05.83c-.45.49-.22,1.43-.51,2a5.7,5.7,0,0,1-.08-1c-.12-.15-.22.09-.4.06a.36.36,0,0,1,.14-.58c.13.1.19.15.32,0a5,5,0,0,1-.09-1.22c-.59-.14-.61.87-.32,1.05-.6.52-.11,1.62-.44,2.29.24.13,0,.63.35.66a2.07,2.07,0,0,1,0-.6c.07-.12.38.08.44-.05s0-.43.12-.47a2.21,2.21,0,0,1,0,1.32,1.55,1.55,0,0,0-.29-.59,2.13,2.13,0,0,0-.17,1.12c-.21-.06-.17-.32-.32-.43m2.53-13a3.1,3.1,0,0,0-.07-1.82c0,.69-.37,1.43.07,1.82m.89-2c.15,0,.23-.12.26-.29l-.16,0c0,.13-.11.15-.1.32m-.18-.63c.13,0,.1.11.26.09,0-.17.13-.21.11-.42a.24.24,0,0,1-.15-.08c0,.21-.25.13-.22.41m-.62-.25a.65.65,0,0,0-.07-.67c0,.3-.26.57.07.67m-1.44-1.42c0,.13.21.17.1.4.36-.11,0-.55.16-.69-.06.14-.24.1-.26.29M211,46.9a.27.27,0,0,0,0-.39c-.12.12-.16.28,0,.39m.7.1a1.44,1.44,0,0,0,.23-1.23l-.16,0c-.24.41.2.79-.07,1.25m0-1.54c.17,0,.25-.13.27-.34s0-.29-.23-.31c-.07.27,0,.39,0,.65m-1.92-.71c0-.12.12-.34,0-.38s-.27.3,0,.38m2-.37c.1-.06.13-.29-.07-.28s-.12.29.07.28m-4.86,1.11c-.28-.1-.49.26-.61.41-.52.6-1,1.26-1.59,1.9a123.14,123.14,0,0,0-9.65,13.78,19.35,19.35,0,0,1-3,4c-.37.33-.73.85-1.28.91-.24-1.42.62-2.66,1.19-3.72a111.41,111.41,0,0,1,5.73-9.8c2.07-3,4.22-5.93,6.43-8.87a17.17,17.17,0,0,0,2.51-3.75,8.25,8.25,0,0,0,.39-.82,22.54,22.54,0,0,0,.09-3.65c.34-7.27.46-14.5,1.22-22.17a25.16,25.16,0,0,1,.84-5.46,5,5,0,0,1,.85-1.74c.17-.12.28,0,.56-.08.43-.08,1-.41,1.49-.5,2.44-.49,3.93-2.06,5.63-3.68,1.45-1.39,3.67-3.1,6.17-1.8.5.26,1.31.93,1.3,1.61,0,.88-1.11,1.55-1.47,2.2a17.78,17.78,0,0,0-.65,1.88c-.15.4-.44.71-.52,1a18.84,18.84,0,0,0-.53,3.65c-.71,8.43-1.2,17.08-1.36,25.1-.2,9.29-.46,18.54-.52,27.91-.08,13.74-1,28.33-1.13,42.16,0,3.85.14,8,.26,11.86a11.7,11.7,0,0,1,0,1.65c-.05.36-.29.55-.35.88a10.53,10.53,0,0,0,.12,1.44c0,.53,0,1,0,1.48a21.32,21.32,0,0,1-.23,3.09c-.12,1.26.54,3.3-.15,4.47-.17.29-.85.52-1.26.8s-.88.6-1.27.81a11.24,11.24,0,0,1-3,.94c-1.52.35-3,.83-4.62,1.3-1.24.36-1.75.59-2.39-.56-.16-.29-.52-.82-.5-1.06,0-.47.43-.5.52-1a10.09,10.09,0,0,0,0-2c-.25-4.52-.6-9-.66-13.68,0-2.61,0-5.32,0-8a73.85,73.85,0,0,1,.24-8.18c.11-1.1.06-2.3.06-3.44,0-3.37.18-6.88.33-10.3.6-13.7.48-27.53.8-40.9"/><path class="cls-1" d="M39.75,131.75a7,7,0,0,0,.89-2.22,8.89,8.89,0,0,0-.89,2.22m41.86-6.36c.13-.2-.11-.48-.29-.6,0-.13,0-.26.14-.25s.06.2.15.14c.07-.46-.59-.08-.65-.43s-.09-.28-.28-.32a3.46,3.46,0,0,0,.93,1.46m-1-1.7c-.06-.08-.18-.34-.3-.21.12,0,.16.35.3.21m3.57-.76c.39-.05.07.43.37.44s0-.24.1-.31c-.35-.1-.07-.38-.35-.55-.13.13-.13.2-.12.42m0-.49c0-.22-.07-.39-.38-.39a.37.37,0,0,0,.38.39m4.1-2.38c.12-.09,0-.26-.17-.3,0,.18,0,.31.17.3m-1-1.3s0-.06.07,0,.17.31.3.15a.14.14,0,0,1-.08-.17c-.13-.06-.43,0-.29.06m-.19-.52c.11,0,0-.44-.12-.29.12,0,0,.29.12.29m2.51.06c0,.29.26.45.58.53.1-.29-.18-.31-.19-.52-.18-.08-.22,0-.39,0m28.92,4.13c.2.22,0,.45.18.63,0-.15.25.08.23-.07s-.28-.3-.17-.63c-.16-.09-.15.06-.24.07m-2.28-.47c-.05.3.28.08.43.07-.1-.14-.23,0-.43-.07m2.65.58c.29.07.54.09.58-.18a.62.62,0,0,0-.58.18m.65,0c.14,0,.14.18.3.21s0-.17.11-.37a.23.23,0,0,0-.41.16m-32-4.55c.22-.08.39.15.46-.15s-.29,0-.31-.1.16,0,.19-.14a1.64,1.64,0,0,1-.61-.37c-.06.37.3.42.27.76m1.46-.6c.11.07,0,.29.12.35.07-.16.23-.19.28-.4a.27.27,0,0,0-.4,0M86.53,116a.2.2,0,0,0-.11-.35c-.16.08-.16.33.11.35m29,5.4c0,.14-.12.4.17.36,0-.61-.21-1.17-.24-1.63a2.13,2.13,0,0,0,.07,1.27m-30.15-5.75c0-.09.14-.11.15-.25s-.13-.15-.3-.15c-.08.22,0,.31.15.4m30.4,4.53c.24,0,0,.28.22.31s.13-.52-.13-.52a.34.34,0,0,1-.09.21M86.4,115.44c0-.13-.3-.07-.42-.12,0,.13.41.32.42.12m35.15,5.32c.08-.23,0-.31-.22-.36a.22.22,0,0,0,.22.36m-1.73-.54a.32.32,0,0,0-.26-.1c-.13.23.26.24.26.1M85.54,115a.48.48,0,0,0,.32,0l0-.21c-.19,0-.22-.1-.31-.16-.14.09.15.25,0,.38m-.49-.74a.35.35,0,0,0,.26.1c.08-.19-.23-.26-.26-.1m3.14,1.31a.18.18,0,0,0,0,.17c-.15,0-.3.23-.45,0,0,.53.56.42.83.68-.07,0,0,.06,0,.11l-.32,0c0,.33.34.48.61.64,0-.25.21-.11.21-.29-.22-.14-.1.2-.29.11a1.18,1.18,0,0,0-.15-.79c.09,0,.18,0,.19-.19a3.78,3.78,0,0,0-.93-1.07c0-.26-.12-.26.07-.43-.13.06-.4-.07-.45.09.37.22.33.74.67,1m36.91,4.94c0-.13,0-.24-.12-.29-.16.12,0,.23.12.29m-3-1.4c0-.14-.07-.2-.12-.29-.06.12-.11.27.12.29m2.66-.52,0-.21c-.09,0-.27-.11-.28,0s.15.14.24.2m-6-.77c.19,0,.22.22.46.23.06-.19-.14-.19-.3-.21-.15-.23.28-.45,0-.6-.23.08-.19.32-.2.58m-.88-.69c0,.17.11.21.23.26.1-.22-.1-.35-.23-.26m5.22,1c0,.13,0,.26,0,.33a1.29,1.29,0,0,1,.75.06c.07-.08.16-.13.21-.24-.32,0-.36-.15-.39-.33-.27,0-.25.3-.58.18m-1.13-.45c0-.14-.05-.19-.19-.2,0,.14,0,.19.19.2m-4-1c.07-.05,0-.24,0-.33,0,.12-.17.27,0,.33m-1.19-.46c0-.07.08-.06.07-.15-.19,0-.13-.19-.29-.21a3,3,0,0,1-.25,1.22c.17.08.41.08.51.3s-.16.05-.15.2a3.46,3.46,0,0,0,.45.29c0-.08.11-.08.14-.15s-.2-.26-.14-.51c.12-.08.09.05.22,0,0-.41-.19-.38-.11-.73-.16-.1-.06.16-.23.07s.16-.24,0-.27-.3,0-.26,0m-.57,2.6c-.36-.09-.37-.74-.08-.89-.19-.36.11-.53-.08-.89.37-.16,0-.58.19-.9-.14-.12-.32-.21-.38-.39a.24.24,0,0,0,.21-.24c-.16-.07-.18.07-.33,0a.44.44,0,0,0-.05-.39c-.34,0-.36-.21-.68-.22.06-.16,0-.09,0-.26-.2,0-.24-.17-.38-.06-.17.7.19,1.24.18,1.67.08,0,.29,0,.26.1s-.2.21-.12.42a.37.37,0,0,0,.28,0,.63.63,0,0,0,.21.37c-.1,0-.06.17-.14.19s.2.09.19.2-.13.13-.19.19a1.84,1.84,0,0,1,.28,1.74c.23,0,0,.46.25.48.31-.38-.08-.68.34-1.1m0,.33a.2.2,0,0,0,.25-.18l-.27,0c0,.1,0,.13,0,.22m7.59-3.64c-.08.2.08.22.17.3.08-.07.09-.23.25-.18s0,.19.06.28.19-.09.21-.24a1.43,1.43,0,0,0-.69-.16m-1,.17a2.32,2.32,0,0,0,.11,1.44c-.14.07-.14.33-.42.21a.27.27,0,0,1-.23.4c.16,0,.38,0,.36.17-.17.09-.46-.2-.51.14.18.12.41-.1.52.19.23-.23,0-.62.22-.73a1.07,1.07,0,0,0,.9.19l0-.21c-.1-.14-.48-.07-.39-.34.17,0,.14.12.31.11.32-.42-.33-.66,0-1-.36-.11.07-.78-.31-.87-.08.25-.37.22-.55.35m.25-.51c.12,0,.26.15.37.06a.86.86,0,0,0-.29-.6c-.12.17,0,.28-.08.54m2,1.14c.12,0,.2,0,.19.14-.27.58.39,1.28.06,1.76a2.42,2.42,0,0,1,.27,1.8c0,.12.21.13.17.3s-.22,0-.2.24c.33.37.24,1,.38,1.38a1.75,1.75,0,0,0-.75-.12c.09.27-.12.63.33.71.17-.13,0-.27,0-.44.21.07.31,0,.49,0s.1.44.44.34c.11-.59-.08-.85.15-1.35a.33.33,0,0,1,0-.6,5.4,5.4,0,0,1-.16-2.17c-.09-.13-.16,0-.32,0-.18-.5-.53-.86-.25-1.57-.36-.25-.32-.51-.08-.89-.08-.15-.22.17-.26-.1,0-.08.14,0,.13-.14-.31-.2-.3-.64-.51-.91-.33.5.1.91-.09,1.64m-8.93-4c.17,0,.18.21.31.11s-.25-.22-.31-.11m-.92,1.67c-.09,0,0,.26-.15.25s-.17-.44,0-.55.12.17.24.2a1.45,1.45,0,0,0,.3-.5c-.23-.44,0-.66,0-1.26a1.05,1.05,0,0,0-.43,0,.46.46,0,0,0,0-.44c-.34-.12-.47.06-.63.18-.1,0-.12-.14-.25-.15s-.14.12-.15.25c0,.44.7.18.84.57-.12,0-.06.3-.21.3-.06-.15-.29-.36-.45-.29a13.81,13.81,0,0,1,.19,1.62c.17.06.25.2.52.19,0,.23.28.36.19.52.13-.13.33.07.48.08-.05-.32-.05-.43.16-.64-.06-.16-.25.11-.27,0,.18-.24-.22-.16-.4-.28m9.75-.56c.08,0,.18-.06.19-.19a.54.54,0,0,0-.4-.23c0,.21,0,.37.21.42m-75.35-4.36a9.79,9.79,0,0,0-1.25,3.1c1.11-2.32,2.62-5.14,3.56-7.73.31-.84,1.54-2.15,1-2.85-1.17,2.4-2.31,4.79-3.36,7.48m65.39,2a.09.09,0,0,1,.12,0c0-.08.11-.27,0-.28,0,.15-.25.22-.11.32m9.71,1.46c.13,0,.18-.06.23-.13s-.05-.21-.18-.25-.06.25,0,.38m-6.31-.71c-.08-.41,0-.72-.23-1H118c0,.44-.09.91.33,1m-2.57-3.26a.2.2,0,0,0-.11-.34c-.11.08-.11.36.11.34m6.23-.51c0,.17.14.18.05.4.22.08.23-.31.17-.42a.38.38,0,0,0-.22,0m-6.73-1.54.32,0c.11-.07.1-.31.13-.47-.45-.17-.57.14-.45.42m6,.33c.13.08.19.37.41.23a2.43,2.43,0,0,1-.05-.39.39.39,0,0,0-.36.16m-6.1-1.28c.15,0,.08.22.29.21a.29.29,0,0,0-.14-.46c0,.1-.14.11-.15.25m-1.34-.21c.1,0,.13,0,.22,0a.26.26,0,0,0-.11-.35c-.14.13-.23.18-.11.37m6.65.6c-.13-.06,0-.31-.16-.36-.18.11-.05.55.16.36m1-1.61c.13.09.25-.12.27,0s-.1.07-.13.14.17.39.4.23c0-.26.1-.61-.16-.69s-.34.06-.38.27m-7.81.16a23.18,23.18,0,0,1-.35-2.31c0-.14.27-.06.31-.22-.49.21-.24-.67-.64-.82a29.23,29.23,0,0,0,.68,5.48c.13-.17,0-.73.2-1,.16.24.59-.07.31-.23,0,.2-.22,0-.34.06,0-.21-.24-.33-.17-.63.14-.14.36.21.4-.1-.13-.07-.48,0-.41-.18s.37.17.36-.21c-.12-.16-.2.1-.35.11m-2.13-3.9a24.37,24.37,0,0,0-2.85.65,42.52,42.52,0,0,0-5.32,1.8c-.86.35-1.73.71-2.53,1.09-2.93,1.38-6.87,3.78-8.63,6.44a5.3,5.3,0,0,0-.75,2.35c-.12,2.68,1.56,4.56,3,6.07a19.3,19.3,0,0,0,6.59,4.16,38.85,38.85,0,0,0,5.89,1.69,20.12,20.12,0,0,0,3.14.21,10.52,10.52,0,0,0,2.88-.15c.63-.16,1.8-.65,2-1.23a8,8,0,0,0-.16-1.46c-.42-3.61-.88-6.41-1.44-10.09s-.87-6.64-1.26-10.18c0-.3,0-1.22-.34-1.37,0,0-.1,0-.12,0s-.07,0-.1,0m1.52.45c.19-.21,0-.48-.19-.57-.1.14,0,.52.19.57m1.88-1.84a13.21,13.21,0,0,0-2.28.19c-.16,0-.27.18-.42.21-.49.11-1,.15-1.47.26-.73.18-1.54.33-2.1.5-1.33.39-2.6.74-3.64,1.13-.35.13-.73.2-1.09.33s-.68.37-1,.5a8.54,8.54,0,0,0-1,.39c-.1,0-.19,0-.29.06a7,7,0,0,1-1.66.84c-.14-.06,0,.26-.14.2s-.1-.09-.21-.09c-.41.33-1,.45-1.29.9-.26-.06-.62.25-.44.37a4.47,4.47,0,0,1,1-.44,13.9,13.9,0,0,1,2.57-1.36,14.86,14.86,0,0,1,2.27-.79c.54-.19,1-.51,1.64-.68a41.86,41.86,0,0,1,5.33-1.47,21.75,21.75,0,0,1,4.27-.65c.8-.38,2.11,0,2.78-.61a13.67,13.67,0,0,0-2.88.21m2.19-32c.58.93,1.19,1.81,1.7,2.79a47.72,47.72,0,0,1,3.32,9.68c2.44,9.08,2.92,19.16,4.34,29.09.6,4.15,1.14,8.49,1.85,12.8a8.41,8.41,0,0,1,.26,1.79c-.1.42-.83.73-1.31,1.06a55.68,55.68,0,0,1-7.4,3.83c-.44.22-1,.47-1.54.7a3.71,3.71,0,0,1-1.67.5c-.52-.09-.7-.53-1.1-.66-1.19-.4-2.6-.13-3.8-.26a35.38,35.38,0,0,1-12.08-3.43,30.1,30.1,0,0,1-7.89-6c-.22.26,0,.49,0,.77-.12.72-.71,1.28-1,1.88-1.38,1.15-3.26,1.63-4.65,2.78-1.1.35-2.18.91-3.4,1.39a2.27,2.27,0,0,1-1.2.31c-.58-.13-1-1-1.45-1.6-.2-.25-.45-.51-.7-.82s-.43-.7-.7-.77a7.81,7.81,0,0,0-2.35.62c-.8.26-1.75.71-2.48.44-.5-.19-.59-.9-.79-1.61s-.43-1.24-.61-1.74c-1.63-4.66-2.89-9.36-4.57-13.93a30.44,30.44,0,0,0-1.28-3.38c-.54-1-1.24-2-1.84-3s-1.2-2-1.9-2.93a10,10,0,0,0-3.82.56c-1.16.55-1.6,1.72-2.6,2.61a7.64,7.64,0,0,1-2.85,1.42c-2.65,5.88-5.45,11.63-8,17.84a8.45,8.45,0,0,0-.92,2.71c.1.61.73.7.86,1.18s-.28,1-.37,1.69c-.06.45.21.74.09,1.17s-1.1,1-1.75,1.37a9,9,0,0,0-2,1,10.73,10.73,0,0,0-1,2.42c-1,2.43-2.1,4.83-3,7.32a46,46,0,0,0-2.43,8.17c-.15.9,0,2-.65,2.76-.89-.14-.81-.52-.95-1.25a3.25,3.25,0,0,1-.17-1.4,35.94,35.94,0,0,1,1.23-4.74c1.2-4.41,3.35-8.8,4.81-12.53-1.5.34-3.18,1-4.83,1.44a4.07,4.07,0,0,1-1.7.34c-.74-.19-1.05-1.58-1.19-2.54-1.07-7.07-1.6-14.88-2.56-22-.84-6.26-1.72-12.38-2.83-18.38A37.84,37.84,0,0,0,24.93,83c-4.45,17.77-10.49,33.68-16.68,49.24.45.06.86-.81,1.59-.36.26.54-.3.83-.42,1.25,1.38,1.08,2.16-1.26,3.24-.37-.1,1-1.07.44-1,1.43,0,.4.88.78,1.35.81s1.88-.81,1.76.33c-.08.71-.92.51-1.48.7-.07.4.17.57.31.82.67-.07,1.74-.3,1.7.37s-1.12.24-1.42.66.15,1.21.5,1.34c.68.26,2.05-.48,2.07.43,0,1.21-2,.07-2.53.43-.22,1.15,1,1.23,1.29,2a3.19,3.19,0,0,1,0,.88,2.83,2.83,0,0,1-3.71,2.71c-.65-.19-.93-.86-1.45-.94a.86.86,0,0,0-.92.63c0,.59,1.08.57.77,1.38s-1.13-.22-1.46-.45A4.28,4.28,0,0,0,7,145.56c-.36.06,0,.82-.42.92-.87-.16-.78-1-1.38-1.37-1,.45-1.57-.43-2-1-.85.42-.91,2.27-1.71,2.53A3,3,0,0,1,1.76,145a7.21,7.21,0,0,0,.47-1.63c0-.45-.71-.88-.91-1.18-1-1.48-2-4.05-.62-6.24.13-.19.34-.37.48-.58a3.11,3.11,0,0,1,1.17-1.19,9,9,0,0,0,.75-.6,7,7,0,0,1,1.82-.76c.68-.25.9-.77,1.81-.7,5-12.45,10.23-26.08,14-41,.73-2.93,1.6-5.93,2.22-9s1.45-6,2-9.29c.36-2.18.94-4.8,1.48-7,.43-1.8.48-2.26,2-2.6,1.18-.25,2.27.06,1.68,1.53-.33.85-1,1.6-1.28,2.6-.93,3-1.47,6.72-2.17,9.37a5.65,5.65,0,0,0,1.73-.56c1.1-.44,2.23-.81,3.38-1.28.65-.27,1.31-.67,2-.95a7.7,7.7,0,0,1,2.3-.68c1,0,2.09.91,2.11,1.59,0,.33-.25.59-.3.89a8.33,8.33,0,0,0,.33,2.13c.9,4.81,1.88,9.8,2.58,14.72.83,5.88,1.74,11.59,2.36,17.21.75-.67,1.15-1.8,2-2.38a18.4,18.4,0,0,0-.76,2.46,34.16,34.16,0,0,0-.89,3.59,14.34,14.34,0,0,0,.23,2.72,13.87,13.87,0,0,0,.42,2.59,6.4,6.4,0,0,0,1.14-2c1.87-4.28,3.81-8.82,5.88-13.12a16.91,16.91,0,0,0,1-2.09c.27-.86.32-1.84.55-2.82a116.11,116.11,0,0,0,2.39-14.22A38.31,38.31,0,0,0,55.45,79a8.18,8.18,0,0,0-.79-2,29.34,29.34,0,0,0-1.78-3.35c-.34-.54-.86-1.29-.71-1.81s.89-.65,1.51-.86,1.18-.46,1.63-.62,1-.24,1.5-.43c1.19-.45,2.23-1,3.45-1.38.85-.29,1.7-.66,2.63-1.07a3.12,3.12,0,0,1,.88-.36c.52,0,.77.37,1.09.39.73,0,1.22-.8,1.89-.85.47.21.86.48,1.32.7a16.25,16.25,0,0,1,.41,3.35c0,1.16-.19,2.42,0,3.62a14,14,0,0,0,1.13,2.64C72.2,83,75.23,89,77.85,95A24.58,24.58,0,0,0,79,97.56c1.39,2.35,2.91,4.75,4.25,7.19.44.81.94,1.63,1.43,2.42,1,1.56,1.93,3.11,3,4.68a19.9,19.9,0,0,0,1.63,2.23c-.19-3.71,2.1-6,4.15-7.63,4.89-3.9,11.75-6.21,18.21-7.42A103,103,0,0,0,107,77.84a24.53,24.53,0,0,0-1.37-3.12c-.63-1.22-1.3-2.9-3-3.1-1.4-.17-2.67,1.31-3.51,2.47-1.79,2.48-2.52,5-3.81,8.24-.54,1.35-1.14,3.51-2.26,3.59-1,.08-1.47-.87-1.52-1.5-.1-1.2.83-3.37,1.22-4.3a43.64,43.64,0,0,1,3.56-7.35c1-1.44,2.25-3.19,3.78-3.8a15.23,15.23,0,0,1,4.1-.67c.69-.06,1.39-.19,2.08-.28s1.52-.09,2.12-.22c.39-.08.67-.34,1.1-.38.26,0,.57.12.92.09s.61-.41,1.29-.23c.35-.07.51-.39.8-.54.66.19,1,0,1.23-.46a1.06,1.06,0,0,0,.83-.09c.06-.64-.28-.9-.27-1.42a2.48,2.48,0,0,1,2.48-2.19A2.42,2.42,0,0,1,119,65.13a2.59,2.59,0,0,1-2,2.16"/><path class="cls-1" d="M134.75,143.35c.08,0,.12-.25,0-.27s-.12.25,0,.27m5.44-.14a.21.21,0,0,0-.17-.36c0,.17.12.23.17.36m-4.78-1.4a.31.31,0,0,0,.22,0,.2.2,0,0,0-.18-.24c-.12.08,0,.13,0,.27m0-.55c0,.12,0,.2.08.23s.17-.07.15-.25a.34.34,0,0,0-.23,0m-.36.28c.08-.13.12-.44,0-.49,0,.14-.2.39,0,.49m.69-.23.21,0c.08-.06.14-.31,0-.33s-.21.1-.2.3m-.66-1.52c.21.09.32-.27.15-.31s-.17.12-.15.31m1.3-1.07c.24-.22.17-.73,0-1,0,.28-.31.84,0,1m4.56-.88c.09-.12.26-.38,0-.44s-.15.43,0,.44m-4.69-2c.25-.07.26.12.43.06.08-.25-.41-.24-.43-.06m.87.83c.06-.35.08-.58.13-.91l-.16,0c0,.35-.14.74,0,.93m4-.41c.25.07.36-.39,0-.38,0,.12-.14.26,0,.38m-4.56-1.81c.13,0,.24,0,.29-.12-.12-.16-.23,0-.29.12m4.88.32c.1-.08.13-.38,0-.39s-.14.38,0,.39m-4.19-.93c.12.1.06.34.21.41a.75.75,0,0,0,0-.65c-.05.12-.2.12-.25.24m4.08-.18c.13.06,0,.28.23.3a3,3,0,0,0,.09-1c-.07.28-.29.38-.32.72m3.06-3c.14,0,.23,0,.24-.13a.24.24,0,0,1-.16-.08c0,.07-.09.09-.08.21m-7.45-1.13c.19,0,.29,0,.31-.23-.19,0-.3,0-.31.23m4.17,0a.24.24,0,0,1,.15.07.28.28,0,0,0-.1-.45c.05.18,0,.18,0,.38m-3.37-.22c0-.23.17,0,.21.09.15-.29.31-.75.09-1a6.41,6.41,0,0,0-.3.94m-1.13-.87c0-.14.08-.31-.06-.34,0,.15-.08.31.06.34m1.57-.65c.13-.11,0-.3,0-.44a.35.35,0,0,0,0,.44m1.19-2.57c.25-.09.35-.39.66-.39-.17,0-.09-.25-.29-.27,0,.08,0,.29-.09.27s-.06-.25-.18-.3c0,.28-.16.54-.1.69M138.28,123c.23,0,.28-.13.37-.28-.25-.08-.25.18-.37.28m-3.66,30c-.05.1-.16.13-.16.3a.34.34,0,0,0,.23,0,.28.28,0,0,0-.07-.28m3.27-23.13c-.14.09-.1.42-.24.51-.08-.1-.24-.14-.29-.26s0-.5.27-.73c-.2-.07,0-.63,0-.82-.49.1,0,1.06-.55,1.18.44.25-.07.73.12,1.06-.16,0-.25.1-.4.11.3.56-.22,1.43,0,2-.25,0-.09.25-.26.34.09.07.21.13.23.25s-.31,0-.3.18.12.33.33.38a6.43,6.43,0,0,0,.22-1.51,3.63,3.63,0,0,0,.7-.28c-.15.65,0,1.33-.13,2.39,0,.1.19.12.19.25a1.24,1.24,0,0,1-.3.5c-.06.16.14.13.07.29-.49.56.15,1.76-.63,2.1,0-.27.21-.47-.08-.56,0,.5-.25,1,0,1.47.27-.16,0-.77.33-.77,0,.42.12,1.47-.19,1.72-.29,0,0-.38-.22-.41-.23.34-.17.51-.33.77-.06-.26-.3-.53-.1-.84-.25-.12-.18.18-.3.23-.16-.14-.1-.43-.19-.63-.06.35-.33.68-.21,1.12a1.15,1.15,0,0,1-.5,0c0,.13-.05.26.07.29s.05-.23.19-.2c.36.21,0,.64,0,.94.28.06.25-.3.62-.13a7,7,0,0,0,.37-.66c.14,0,0,.22.18.25.14-.2.06-.7.42-.6-.25.31,0,.64-.09,1,.41.14.29-.41.56-.47.12.55-.1,1,.05,1.54a.49.49,0,0,0-.18.08c.07.06.16.11.13.24-.2,0-.23.21-.51.09-.57.46-.11,1.66-.8,1.8,0-.17.19,0,.14-.25-.26-.12-.08.35-.31.28-.08-.37-.3-.71,0-1.09-.22-.18-.08-.72.08-.92-.26-.2-.42,0-.68-.21-.09.09-.16.22-.35.17,0-.19,0-.33-.11-.4-.21.12-.11.55-.12.8.27,0,.28.24.16.41.5.2-.13,1,.3,1.36,0-.1,0-.28.14-.2,0,.29-.15.31-.32.34-.39.58-.12,1-.15,1.4-.07.82-.6,1.78-.4,2.79.21.11,0-.3.24-.19-.13.6-.69,1.72.16,2a.28.28,0,0,1,.14-.26c.11.29.38.45.31.87-.4.08-.06.76-.63.62,0,.06,0,.15-.08.15.29.46.34,1.51-.25,1.72a3.12,3.12,0,0,0,0,.61c-.21.08-.21.44-.46.48,0,.18.23.12.12.34s-.41.31-.52.58c-.17,0-.24.07-.44,0,.1.25.13.27,0,.54.07,0,.28,0,.26.09-.14.33,0,.64-.23.85-.08,0-.2,0-.21-.09.11-.33.18-.58,0-.76a1.18,1.18,0,0,0-.2,1c.12.08.35.09.28.31a.2.2,0,0,0-.27,0c.1.52-.36.73-.12,1.24-.07.1-.25.05-.25.24s.32.11.28.32a8.69,8.69,0,0,0-.7.66c.28.08,0,.3.21.47a2,2,0,0,0-.37.28c.18.34-.19.67-.26,1.05,0,.12.22.12.18.3a1.16,1.16,0,0,0-.27.73c.12,0,.2,0,.2.14a1.25,1.25,0,0,1-.51.86c0,.12.14-.05.27,0-.33,1.55-.38,3.64-1.39,4.68.15.15.17-.08.22,0a2.75,2.75,0,0,1-.31,1.38c.36.9-.84,2.48-.43,3.39-.19.35-.59.53-.53,1,.08,0,.2,0,.2.09,0,.51-.37.57-.47,1,.23,0,.16.62,0,.65s-.05-.15-.2-.13c0,.43-.47.62-.14,1-.11.21-.25,0-.31.23s.21.1.12.29-.31.21-.17.47c-.64.46-.73,1.33-1.25,1.84.34.32.84-.16,1.1-.44,1.13-1.23,1.73-3.19,2.5-4.84.65-2.42,1.39-4.72,1.88-7.34.09-.05.11-.19.2-.25a29.3,29.3,0,0,1,1.27-5.4c.29.12.24.49.21.85.52.23.66-.59.76-1.15L135,161c.44-1.13.34-2.44.87-3.38,0-1.18.94-2.42.81-3.72.3-.18.13-.61.25-1s.49-.72.27-1.11c.06-.13.18-.19.22-.35a32.38,32.38,0,0,1,.64-3.31c.12,0,.2-.15.35-.16a1,1,0,0,1,.15-.69c-.06-.07-.19-.08-.19-.2s.18-.23.35-.11c.11-.18-.18-.06-.14-.18a1.88,1.88,0,0,0,.44-.76c-.07-.12-.24.06-.26-.15s0-.28.09-.26-.17.19.09.18c0-.21.2-.21.24-.52-.26-.06-.28.17-.49,0,0-.1.13-.12.14-.25-.15,0-.29,0-.24-.2.32-.07.52,0,.77-.06a12.09,12.09,0,0,1,.47-2.12c-.12,0-.13.08-.27,0,.13-.19-.09-.3.12-.48a.3.3,0,0,0-.43-.06c.09.09.22.15.17.35-.26,0-.3-.22-.39-.38.31-.15,0-.6.1-.7.38,0,.2.49.59.52.1-.3.32-.78,0-.92-.12.05-.11.27-.26.29s-.39.1-.48-.07c.34,0,.23-.43.14-.59.1,0,.06-.17.18-.13.29,0,.36.2.44.39.68-.91.27-2.67.9-3.6-.07-.3-.19-.55,0-.82a.73.73,0,0,1,.06-.81c.31-.63,0-1.58.5-1.95-.33-.46,0-1.22-.31-1.64.14-.17.19-.46.49-.42.4.23-.09.69.27.81.13-.24-.06-.47.12-.81a2.32,2.32,0,0,1-.84-.28,9.61,9.61,0,0,1-.51,1.68,3.74,3.74,0,0,1,0-1c-.13,0-.18.08-.2-.09s.15-.09.19-.19c-.13,0-.2,0-.2-.14,0-.32.28-.52.49-.75.24.26.49-.07.78-.1s.16.36.44.39c.09-.08,0-.32.08-.54s-.19-.11-.25-.2c.22,0,.26-.18.22-.35-.33.18-.59.88-.86.26.1-.2.08-.41.21-.68a.34.34,0,0,0-.26-.09.32.32,0,0,0,.09.5c-.3,0-.21.53-.47.59a7.23,7.23,0,0,1,.06-1.19c-.47-.11-.29-.79-.11-1.12.19.06.32,0,.35-.16a1.21,1.21,0,0,0-.41-.56c.22-.06.34-.26.4-.54s-.29.07-.3-.15c.08-.07.26,0,.29-.13s-.21-.1-.25-.19.19,0,.19-.14a.73.73,0,0,1,0-1c0-.15-.27,0-.27-.09.3-.54.15-.85.34-1.6l.22,0c0-.3.1-.53-.11-.78.07,0,.28-.13.14-.2a.58.58,0,0,1-.67.07c-.05.19.17.16.12.35-.12,0-.15-.18-.17,0s.27.14.22.36a1.35,1.35,0,0,0-.12,1.57c0,.18-.15.09-.19.19.21.13.06.3.2.52a2.16,2.16,0,0,1-.36.22,9.75,9.75,0,0,1-.22,1.94c0,.12.14.08.13.19a4.58,4.58,0,0,0-.27,2.26c-.38.62-.05,1.31-.29,2-.12.05-.31,0-.4.11a.53.53,0,0,1,.23-.79c-.42-.45-.06-1.18.07-1.63-.22-.06-.17-.32-.33-.43.08,0,.09.08.17,0s-.21-.1-.13-.29c.16.06.21,0,.33,0,.09-.22-.25-.13-.23-.3s.18-.32.24-.52c-.16,0,0-.44-.17-.29,0-.13.2-.08.19-.25s-.14-.11-.19-.19c.16-.07.3-.28.06-.38.06-.19.17.07.24-.13-.16,0,0-.35-.2-.14,0-.39.29-.83.3-1.32-.1-.14-.23,0-.43-.06a2,2,0,0,1-.29.83c.3.57-.14,1.58-.21,2.27s.21,1.12-.1,1.41a2,2,0,0,1-.12,1.24c-.12.91-.12,2-.24,2.82,0,.24-.07.5-.31.61-.05-.86.2-1.68.12-2.72,0-.08.13-.05.17-.09a10.26,10.26,0,0,0,.08-2.4c.55-.79,0-1.73.34-2.36-.21,0-.28-.27-.38,0,.07.1.05.28.17.35a.38.38,0,0,0-.09.59c-.3.14-.23.89-.1,1.14-.12.08-.1,0-.27,0-.11.28.18.51-.1.64-.16-.23,0-.44,0-.76-.2,0-.34.06-.37.27.13,0,.26,0,.25.15m2.82-8.58c.18,0,.31-.07.31.16s-.15,0-.33,0a1.1,1.1,0,0,1-.28.4.81.81,0,0,1,.11.78c.18.06.22.22.46.24.11-.18,0-.42.27-.4-.13-.37.32-.52.2-1-.16-.09-.15.06-.23.08s0-.07,0-.12.29,0,.26-.29c-.23.08-.61-.21-.73.11m-3-.7a.31.31,0,0,0,.12.29c.13-.09.21-.13.16-.31a.37.37,0,0,0-.28,0m.52.18a.36.36,0,0,0,.28,0,.23.23,0,0,0-.08-.23c0,.18-.16.13-.2.25m1.54,0a8.6,8.6,0,0,0-.17,1.51c.87.25.62-.52.63-.89-.18,0-.15.19-.3.17s0-.2,0-.33c.25,0,.34-.18.39-.44-.18-.2-.31.07-.54,0m1,.2c.18.2.36,0,.5-.09,0-.17-.13-.29-.15-.46a4.5,4.5,0,0,1-.35.55m-2.78-.89c.15,0,.1.1.22,0a.12.12,0,1,0-.22,0m2,.34c.06-.2,0-.34-.11-.4,0,.22-.21.38.11.4m.08-.15a.24.24,0,0,1,.15.07.55.55,0,0,0,.12-.47c-.08,0-.19-.05-.22,0,.15.1-.08.23-.05.38m1.08.1c-.09-.25,0-.18.06-.43l-.27,0c0,.24,0,.42.21.47M140.05,119c0,.17,0,.38.09.56.33,0,.2-.34.19-.58-.14-.06-.15.06-.28,0m-.09-.84c.13.19.11-.12.28-.07s-.14.39.16.41c0-.24.09-.57-.12-.67,0,.2-.29.12-.32.33m1.12.93c-.25.09-.13.28-.24.52.26,0,.19.17.42.16a13.26,13.26,0,0,0,.13-2.06c-.07,0-.06-.08-.15-.07a7.36,7.36,0,0,0-.16,1.45m.13-1.62a.35.35,0,0,0,.26.09.28.28,0,0,0-.18-.3c0,.07-.09.09-.08.21m-2.55,1.33c0-.12-.19-.15-.36-.16,0,.21-.21.23-.41.21,0,.12-.12.19-.11.37s.35.31.2.52c.19,0,.19.11.36.11s.18-.32.29-.45c.22,0,.41.07.46.23-.17,0,0,.14,0,.26s-.33,0-.31.23.29-.06.26.15a.2.2,0,0,1-.27,0,2,2,0,0,1-.1.7,1.14,1.14,0,0,1-.88,0c-.28.28-.09.68-.31,1a1.74,1.74,0,0,1-.16,1.51.83.83,0,0,1-.37,1,.15.15,0,0,0-.21,0c0,.22.32.33.51.29.09.33-.16.52-.12.81s.22.27.21.41-.37.31-.18.52c-.08.07-.33,0-.32-.1.18-.13.19-.19.18-.47-.58-.11-.21.55-.17.8s-.26.08-.26.29a1.1,1.1,0,0,0,.44,0c.25.26-.11.64,0,.87-.22,0-.32-.39-.44-.33.1.06,0,.3.11.34.25-.18.22.25.16.46.2.08.18-.14.39-.05,0,.1-.17.07-.15.25s.08.22.3.21a4.68,4.68,0,0,1,.36-1.76c-.3-.1,0-.41-.14-.56a.7.7,0,0,0,.52-.15,1.25,1.25,0,0,0,.38.38c-.1.09,0,.34.11.4s.05,0,.11,0a1.67,1.67,0,0,0-.06-1.1c-.39,0-.35-.38-.24-.64-.08-.18-.46,0-.55-.3a.35.35,0,0,1,.13-.14c.1,0,.09.09.14.13a.92.92,0,0,0,.35-.88c-.09-.12-.14,0-.27,0,0-.45-.5-.59-.57-1,.14,0,.18-.06.24-.13-.09-.18,0-.25-.15-.46a.49.49,0,0,0,.35-.17c.38.19.68.16.81.5.33-.07.33-.57.27-.78.12,0,.18,0,.19-.14-.25-.43.32-1.09-.06-1.54a.58.58,0,0,0,.24-.51c-.28,0-.4-.18-.37-.5-.26,0-.7-.32-.36-.49-.06.3.39.22.49.4a.79.79,0,0,0-.26-.86c0-.07,0-.28.09-.26s.16.07.14.19c.29,0,.53-.27.28-.45,0,.09,0,.27-.14.19.19-.24-.15-.35,0-.71-.09,0-.33,0-.32-.1s.18,0,.34-.06c0-.16.1-.13.09-.26s-.2-.39-.42-.5c-.14.33,0,.43-.12.86.11.19.3,0,.34.27-.06.06-.08.19-.19.19s0-.23-.13-.24a2.19,2.19,0,0,1-.3,1.33m-.64-2.39c0,.5-.1.87-.14,1.34l.21,0c-.07-.35.19-.49.56-.42.1-.44-.48-.37-.5-.73.21-.07.31.13.46.23,0-.13.26-.58,0-.6-.1.27-.41.08-.57.14m2.48.63a.52.52,0,0,0,0-.72c0,.24-.19.63,0,.72m-.08-1c.16.05.19-.09.2-.24l-.16,0a.19.19,0,0,0,0,.26m1-1.5c.21.07.31,0,.31-.23-.21-.07-.32,0-.31.23m-2.7-1.81c.17,0,.24.16.38.06-.06-.2-.07-.43-.38-.44-.14.1.08.19,0,.38m.93-1.45c.17.09.31-.17.19-.25,0,.19-.22,0-.19.25m.2-.3c.07-.07.1-.52-.08-.56,0,.18-.1.49.08.56m-.56-1.78-.27,0c-.08.21.29.26.27,0m.21-2.65c0-.14,0-.19-.19-.19-.08.17.05.18.19.19m.32-.67a.71.71,0,0,0,.34.71c.14-.14-.14-.26-.1-.46s.21-.09.3-.17c-.29-.09-.73-.15-.93-.41-.2.17.22.43.39.33m.28-2.7c.08.14.23.14.33,0-.2,0-.26-.18-.33,0m-31.23,51.85c.49,0,.35.45.69.54a20.88,20.88,0,0,0,1,2.82c.09.31,0,.69.13,1a6.36,6.36,0,0,0,.39.72c.32.7.48,1.64.81,2.36.15.34.4.62.57,1,.33.65.59,1.33,1,2a14.45,14.45,0,0,0,1,1.63c.45.6.7,1.63,1.46,2,1.64,2.84,3.39,6.05,6.14,8.28.41.33.85.68,1.44,1.08s1.11.89,1.7.74,1.54-2.81,1.84-3.68a125.86,125.86,0,0,0,3.39-13.64c.26-1.19.75-2.86,1-4,.07-.38.08-1.05.16-1.45s.26-.8.31-1.05c.56-2.93,1-6,1.46-9,.21-1.56.56-3.1.72-4.66.48-4.52,1.13-9.32,1.54-14.12.27-3.1.57-6.19.85-9.3.55-6.12.84-12.31,1.39-18.42a219.53,219.53,0,0,0,1.11-27.11c-.63.09-1.11.7-1.54,1.15-1.14,1.2-2.44,2.28-3.62,3.48-.18.18-.4.66-.77.43a3.49,3.49,0,0,1,.6-1.5,18.82,18.82,0,0,1,2.57-3.79c-.07-.45-.27-.66-.17-1.12a1.78,1.78,0,0,1,1.87-1.21,4.88,4.88,0,0,0,.54-1.84c.78-.45,1.94,0,2.79,0a9.63,9.63,0,0,0,2.54-.51c.82-.22,1.64-.42,2.39-.64A27.92,27.92,0,0,1,150.86,66c1.47-.15,3.13,1.09,3,2.41a8.34,8.34,0,0,1-.59,1.45A14.63,14.63,0,0,0,153,73c-.2,3-.2,6.11-.33,9.1-.42,9.91-1.41,20.7-2.34,31.14-.35,3.9-.68,7.61-1.1,11.45-.23,2.09-.36,4-.65,6-.48,3.21-.67,6.74-1.37,9.88-.11.51-.38,1-.55,1.56-.87,2.89-1.58,5.36-3.27,7.09a21.18,21.18,0,0,0-2.06,1.78,7.6,7.6,0,0,0-1.08,2.91,10.07,10.07,0,0,1-.27,1.5,10.35,10.35,0,0,1-.78,1.25c-.93,1.74-1.68,3.7-2.56,5.66-.42.92-1,1.85-1.29,2.82-1.37,4.08-2.61,8.62-4.57,12a12.24,12.24,0,0,1-1.67,2.45,11.85,11.85,0,0,1-2,1.41,11.25,11.25,0,0,1-2,1.24,5.68,5.68,0,0,1-4.58-.87c-3.49-2.15-5.86-6-7.57-9.47a46.4,46.4,0,0,1-3-7.88,45.35,45.35,0,0,1-1.24-6.63,3.89,3.89,0,0,1,.11-2.29"/><path class="cls-1" d="M213.62,82.65c-.19,0-.21-.1-.3-.16a1.42,1.42,0,0,0,0-1.09c.81-.52.44.54.31,1.25"/><path class="cls-1" d="M213.75,107.3c.08,0,.08.07.15.08,0,.17-.12.14-.1.31s.25.2.47.18c0,.25-.31.1-.33.34a.46.46,0,0,1,0,.66c0,.16.17-.12.15.07s-.18,0-.24.13c.13.19.16.36-.07.49.22,0,.2-.21.4-.06l0,.22c-.27-.12-.25.17-.5.09.24-.3-.15-.4-.12-.68-.16.18-.57,0-.74.17,0-.14-.15-.17-.24-.25.06-.21.44,0,.47-.21.23,0,.16.2.41.17.08,0,.1-.08.18-.08a2.1,2.1,0,0,0-.11-.78c.23-.19.09-.51.24-.85"/><path class="cls-1" d="M247.34,149.9a13.27,13.27,0,0,1-4.1-.07,7.85,7.85,0,0,1-3.25-1.37,7.75,7.75,0,0,1-2.3-2.76,12.28,12.28,0,0,1-1.19-4.17l-1.44-11.73,5.91-.73,1.43,11.62a4.73,4.73,0,0,0,1.44,3.23,4.2,4.2,0,0,0,5.58-.64,4.47,4.47,0,0,0,.64-3.38l-1.44-11.76,5.91-.73L256,139a12.23,12.23,0,0,1-.17,4.46,7.62,7.62,0,0,1-4.46,5.38A13.34,13.34,0,0,1,247.34,149.9Z"/><path class="cls-1" d="M263.62,131.45l-6.27.77-.62-5.08,18.33-2.24.63,5.07-6.27.77,1.93,15.83-5.79.71Z"/><path class="cls-1" d="M277.38,124.62l10.7-1.32a10.72,10.72,0,0,1,3.43.07,5.92,5.92,0,0,1,2.49,1.12,4.71,4.71,0,0,1,1.17,1.34,5,5,0,0,1,.59,1.87v.06a4.63,4.63,0,0,1-.55,3,5.9,5.9,0,0,1-2.09,2,7.29,7.29,0,0,1,3.26,1.43,4.69,4.69,0,0,1,1.53,3.16v.06a5,5,0,0,1-1.55,4.5,9.84,9.84,0,0,1-5.65,2.24l-10.78,1.32Zm10.3,7.19a3.87,3.87,0,0,0,2-.7,1.54,1.54,0,0,0,.53-1.46v-.06a1.53,1.53,0,0,0-.82-1.25,3.47,3.47,0,0,0-2-.22l-3.76.46.45,3.67Zm1.81,7.81a3.62,3.62,0,0,0,2-.75,1.59,1.59,0,0,0,.54-1.5v-.06a1.65,1.65,0,0,0-.86-1.29,3.75,3.75,0,0,0-2.21-.25l-4.42.55.47,3.85Z"/><path class="cls-1" d="M45.87,51.57l6.47-6.4A10.09,10.09,0,0,0,54,43.12a2.78,2.78,0,0,0,.35-1.72,1.86,1.86,0,0,0-.77-1.35A2.33,2.33,0,0,0,52,39.73a3.2,3.2,0,0,0-1.74.82,11.41,11.41,0,0,0-1.75,2.13l-4-2.52a16,16,0,0,1,1.34-2,8.72,8.72,0,0,1,1.54-1.5,8,8,0,0,1,1.93-1.06,11.05,11.05,0,0,1,2.47-.59,8.83,8.83,0,0,1,2.92.09,7,7,0,0,1,2.4,1,5.76,5.76,0,0,1,1.7,1.74,6,6,0,0,1,.83,2.42v.05a6.58,6.58,0,0,1,0,2.09A5.87,5.87,0,0,1,59,44.2a9.51,9.51,0,0,1-1.21,1.67c-.49.55-1.05,1.12-1.7,1.72l-3,2.72,7.92-1,.56,4.33L46.38,55.57Z"/><path class="cls-1" d="M72.73,52.59a8.38,8.38,0,0,1-3.8-.31,8.17,8.17,0,0,1-3.06-1.78,9.64,9.64,0,0,1-2.15-2.94,11.66,11.66,0,0,1-1.11-3.75v-.06a11.73,11.73,0,0,1,.14-3.93,9.89,9.89,0,0,1,1.37-3.41,8.7,8.7,0,0,1,2.52-2.5A9.12,9.12,0,0,1,74,33a8.29,8.29,0,0,1,3,1.78,9.77,9.77,0,0,1,2.17,2.94,11.72,11.72,0,0,1,1.11,3.76v0a12,12,0,0,1-.13,3.93,9.52,9.52,0,0,1-1.37,3.41,8.68,8.68,0,0,1-2.54,2.51A8.36,8.36,0,0,1,72.73,52.59Zm-.55-4.72a2.68,2.68,0,0,0,1.4-.57,3.27,3.27,0,0,0,1-1.22A5.3,5.3,0,0,0,75,44.35a8,8,0,0,0,0-2.13v-.06a7.66,7.66,0,0,0-.53-2.07,5.58,5.58,0,0,0-.93-1.57,3.72,3.72,0,0,0-1.27-1,2.73,2.73,0,0,0-1.5-.21,2.82,2.82,0,0,0-1.39.57,3.44,3.44,0,0,0-1,1.21,5.16,5.16,0,0,0-.51,1.73,8.57,8.57,0,0,0,0,2.14v.06a8.31,8.31,0,0,0,.54,2.09,5.51,5.51,0,0,0,.94,1.58,3.53,3.53,0,0,0,1.26.94A2.92,2.92,0,0,0,72.18,47.87Z"/><path class="cls-1" d="M84.89,36.06l-3.14,1.15-1.54-4,5.41-2.31,3.87-.49L92,49.75l-5.23.67Z"/><path class="cls-1" d="M102.27,48.82a10.51,10.51,0,0,1-3.84-.14,11.29,11.29,0,0,1-3.14-1.29l2-4a7.42,7.42,0,0,0,2.12.92,6.13,6.13,0,0,0,2.19.09A3.18,3.18,0,0,0,104,43a5.35,5.35,0,0,0,.71-3A5.8,5.8,0,0,1,100.86,42a7.72,7.72,0,0,1-2.64-.1A6.29,6.29,0,0,1,96,41a5.51,5.51,0,0,1-1.59-1.73,6.54,6.54,0,0,1-.8-2.46v-.06a7.19,7.19,0,0,1,.21-3,6.67,6.67,0,0,1,1.32-2.41,7.32,7.32,0,0,1,2.25-1.72,10.26,10.26,0,0,1,6.49-.75,7.91,7.91,0,0,1,2.66,1.36,7.46,7.46,0,0,1,2,2.53,12.52,12.52,0,0,1,1.19,4.28v0a15.54,15.54,0,0,1,0,4.37,9.61,9.61,0,0,1-1.27,3.55A7.75,7.75,0,0,1,106,47.57,9.05,9.05,0,0,1,102.27,48.82ZM101.82,38a2.61,2.61,0,0,0,1.89-1,2.44,2.44,0,0,0,.49-1.87v0a2.52,2.52,0,0,0-1-1.78,2.73,2.73,0,0,0-2.1-.49,2.66,2.66,0,0,0-1.89,1,2.51,2.51,0,0,0-.48,2v0a2.42,2.42,0,0,0,1,1.72A2.77,2.77,0,0,0,101.82,38Z"/></g></g></svg>